<svg width="791" height="274" viewBox="0 0 791 274" fill="none" xmlns="http://www.w3.org/2000/svg">
<path d="M722.216 131.959H46.209V222.742H722.216V131.959Z" fill="#F7CD7E"/>
<g opacity="0.4">
<path opacity="0.4" d="M722.216 131.959H46.209V222.742H722.216V131.959Z" fill="black"/>
</g>
<path d="M761.191 126.575C742.013 114.833 692.165 96.4227 678.332 94.8756C669.951 93.9319 632.652 88.8574 632.652 88.8574L620.571 87.8983C620.571 87.8983 492.048 24.9321 471.601 17.1193C439.889 5.02113 373.037 -5.49901 302.093 3.19558C302.093 3.19558 207.29 11.7664 186.224 17.8C165.159 23.8336 63.2275 55.2549 63.2275 55.2549C63.2275 55.2549 18.5439 59.8961 19.2385 61.5979C20.0663 64.0951 21.5692 66.3002 23.5725 67.9564V96.1132C23.5725 96.1132 18.6194 102.766 17.3811 105.953C16.1429 109.14 13.3492 134.187 13.3492 134.187C13.3492 134.187 0 165.608 0 173.87C0 182.131 24.1614 213.862 30.081 218.627C36.0005 223.392 83.5079 230.322 83.5079 230.322V206.559C84.7613 170.373 113.257 141.443 148.246 141.443C183.234 141.443 211.745 170.373 212.998 206.559L213.134 237.346H583.921L583.665 214.496C583.529 212.686 583.438 210.876 583.438 209.035C583.438 171.704 612.447 141.443 648.236 141.443C684.025 141.443 713.049 171.704 713.049 209.035C713.049 210.876 712.959 212.686 712.823 214.496H714.137V237.346H756.887C756.887 237.346 791.619 211.046 790.653 197.679V160.131C790.661 155.143 788.821 150.338 785.503 146.687C778.36 138.848 770.176 132.077 761.191 126.575V126.575Z" fill="#F7CD7E"/>
<g opacity="0.2">
<path opacity="0.2" d="M790.653 171.008L763.29 161.013L760.043 176.252L716.356 173.87C716.356 173.87 697.118 136.245 657.795 132.934C624.135 130.087 597.392 147.244 597.392 147.244L404.991 127.689C404.991 127.689 307.409 123.883 269.762 124.363C232.116 124.843 198.939 152.86 198.939 152.86C198.939 152.86 187.84 136.353 148.472 135.982C109.104 135.61 92.6742 159.281 92.6742 159.281C64.7743 155.477 38.3266 144.278 15.9466 126.792L14.0136 128.339C13.621 131.712 13.3492 134.094 13.3492 134.094C13.3492 134.094 0 165.515 0 173.777C0 182.038 24.1614 213.769 30.081 218.534C36.0005 223.299 83.5079 230.23 83.5079 230.23V206.467C84.7613 170.28 113.257 141.35 148.246 141.35C183.234 141.35 211.745 170.28 212.998 206.467L213.134 237.254H583.921L583.665 214.403C583.529 212.593 583.438 210.783 583.438 208.942C583.438 171.611 612.447 141.35 648.236 141.35C684.025 141.35 713.049 171.611 713.049 208.942C713.049 210.783 712.959 212.593 712.823 214.403H714.137V237.254H756.887C756.887 237.254 791.619 210.953 790.653 197.586V171.008Z" fill="black"/>
</g>
<path d="M130.76 57.2195C130.049 57.7681 129.511 58.5189 129.215 59.3784C128.918 60.2379 128.875 61.1679 129.09 62.0524C129.306 62.9369 129.771 63.7366 130.428 64.3519C131.085 64.9671 131.904 65.3705 132.783 65.5118L165.386 69.9674L350.614 90.884L576.448 103.725C578.235 103.86 580.027 103.518 581.646 102.731C583.266 101.945 584.659 100.741 585.689 99.2382C587.607 96.2988 588.332 92.1835 583.59 87.5268C574.122 78.2443 532.247 54.0634 522.341 49.3139C466.593 18.4713 403.565 4.13633 340.315 7.91406C309.101 9.01248 249.211 18.1557 171.804 28.5366C170.171 28.7777 168.618 29.4141 167.274 30.3931L130.76 57.2195Z" fill="#263238"/>
<path d="M169.236 66.5483C169.689 65.125 186.361 32.8684 189.607 30.9654C192.854 29.0625 327.614 11.5186 329.472 13.9476C331.329 16.3765 335.996 84.0458 335.996 84.0458L169.236 66.5483Z" fill="#455A64"/>
<path d="M220.624 26.0307L219.461 73.3868H226.407V25.2417L220.624 26.0307Z" fill="#263238"/>
<path d="M544.493 61.5825C544.493 61.5825 544.613 61.8146 544.825 62.2942C545.036 62.7738 545.368 63.5009 545.776 64.4446C546.184 65.3883 546.758 66.5641 547.286 67.9874L549.174 72.9535C552.951 83.9357 555.603 95.2905 557.087 106.835C559.373 124.733 559.924 142.818 558.733 160.828C558.129 171.24 557.011 182.301 555.305 193.858C554.429 199.629 553.432 205.538 552.164 211.541C551.886 213.072 551.487 214.578 550.971 216.043C550.366 217.496 549.66 218.903 548.857 220.251C547.257 222.973 545.517 225.607 543.647 228.141L543.541 228.28H543.36L390.282 225.418L306.729 223.454C293.455 223.191 280.529 222.928 268.056 222.835C266.546 222.835 264.945 222.835 263.405 222.835C261.864 222.835 260.384 222.835 258.753 222.835C255.678 222.587 252.681 221.72 249.935 220.282C247.249 218.883 244.776 217.09 242.595 214.96C240.433 212.909 238.522 210.598 236.902 208.076V208.076C222.632 187.964 209.721 169.399 198.471 152.767C192.853 144.444 187.613 136.662 182.887 129.36C178.16 122.058 173.826 115.344 170.217 109.109C168.441 106.185 166.842 103.152 165.43 100.027L164.524 97.8151C164.222 97.088 164.071 96.2681 163.829 95.6028C163.588 94.9376 163.376 94.164 163.255 93.4523C163.135 92.7407 162.984 92.0136 162.863 91.3174C162.08 86.5645 162.396 81.6898 163.784 77.0843C164.621 74.233 165.852 71.5189 167.438 69.024C167.975 68.1639 168.581 67.3514 169.25 66.595L168.782 67.2139C168.495 67.6161 168.057 68.2504 167.529 69.0858C165.991 71.591 164.801 74.304 163.995 77.1461C162.643 81.723 162.359 86.561 163.165 91.271L163.557 93.375C163.693 94.0867 163.965 94.7829 164.161 95.51C164.358 96.2371 164.554 96.9797 164.841 97.6914L165.747 99.8882C167.178 102.981 168.781 105.988 170.549 108.892C174.204 115.081 178.522 121.826 183.279 129.097C188.036 136.368 193.306 144.135 198.939 152.443C210.249 168.996 223.1 187.561 237.446 207.673C240.643 212.694 245.034 216.799 250.206 219.601C252.882 220.988 255.795 221.829 258.784 222.077C260.294 222.154 261.804 222.154 263.314 222.077C264.824 221.999 266.425 222.077 267.98 222.077C280.469 222.077 293.38 222.417 306.669 222.665L390.222 224.598L543.3 227.553L543.028 227.693C544.885 225.155 546.637 222.541 548.207 219.88C548.983 218.561 549.674 217.191 550.276 215.78C550.782 214.346 551.171 212.871 551.439 211.371C552.707 205.399 553.719 199.505 554.595 193.734C556.332 182.208 557.464 171.178 558.083 160.781C559.304 142.807 558.798 124.754 556.573 106.881C555.131 95.3546 552.551 84.0079 548.872 73.0154L547.03 68.0338C546.501 66.595 545.942 65.4347 545.519 64.4756L544.613 62.3096C544.568 61.8301 544.493 61.5825 544.493 61.5825Z" fill="#263238"/>
<path d="M353.467 91.0391C353.626 91.4771 353.752 91.9272 353.844 92.3851C354.056 93.2669 354.328 94.5974 354.599 96.3146C355.143 99.7337 355.717 104.731 356.109 110.935C356.91 123.311 356.593 140.484 356.351 159.405C356.109 178.325 355.656 195.467 355.309 207.875C355.113 214.063 354.962 219.014 354.856 222.556C354.781 224.227 354.735 225.558 354.69 226.532V227.584C354.707 227.697 354.707 227.812 354.69 227.925C354.676 227.807 354.676 227.687 354.69 227.569C354.69 227.29 354.69 226.95 354.69 226.532C354.69 225.558 354.69 224.227 354.69 222.541C354.69 218.998 354.811 214.001 354.886 207.859C355.098 195.39 355.385 178.294 355.702 159.389C356.019 140.484 356.351 123.342 355.702 110.965C355.4 104.777 354.916 99.7955 354.463 96.361C354.237 94.6438 354.01 93.2669 353.859 92.416L353.678 91.3949C353.585 91.2924 353.513 91.1713 353.467 91.0391V91.0391Z" fill="#263238"/>
<path d="M354.977 12.5555L368.794 84.0461L516.148 94.8757L538.8 63.3461C538.8 63.3461 481.703 30.0684 431.583 20.0279C380.648 9.78621 354.977 12.5555 354.977 12.5555Z" fill="#455A64"/>
<g opacity="0.2">
<path opacity="0.2" d="M239.092 177.877C239.092 177.877 307.937 207.519 320.455 210.365C332.974 213.212 534.677 214.713 534.677 214.713L538.86 205.43L328.338 203.991C328.338 203.991 243.743 171.688 239.092 177.877Z" fill="black"/>
</g>
<path d="M198.938 152.86L198.576 152.52C198.349 152.288 197.987 151.963 197.519 151.529C196.111 150.317 194.633 149.19 193.094 148.157C190.629 146.558 188.061 145.131 185.408 143.887C181.868 142.308 178.225 140.985 174.505 139.926C169.989 138.682 165.392 137.772 160.748 137.204C158.257 136.817 155.644 136.708 152.956 136.476C151.627 136.368 150.253 136.476 148.879 136.368C147.505 136.26 146.1 136.275 144.681 136.368C132.364 136.921 120.308 140.182 109.33 145.929C104.465 148.401 99.8819 151.415 95.6634 154.918L95.3312 155.196L95.0896 154.856C88.5207 145.573 82.4199 136.786 77.1195 128.71C71.8191 120.634 67.3492 113.239 63.7099 107.128C60.0706 101.017 57.2316 95.9429 55.2836 92.4929L53.094 88.5169L52.5353 87.4804C52.4653 87.3695 52.4095 87.2499 52.3691 87.1245C52.3691 87.1245 52.4597 87.2174 52.5956 87.4494L53.2148 88.4395C53.7584 89.3833 54.5437 90.6828 55.5252 92.3537L64.1327 106.85C67.8324 113.038 72.3476 120.309 77.7235 128.323C83.0994 136.337 89.2002 145.156 95.7087 154.438L95.15 154.361C99.4232 150.816 104.062 147.761 108.982 145.248C120.055 139.449 132.225 136.181 144.651 135.672C146.064 135.595 147.481 135.595 148.894 135.672C150.283 135.672 151.658 135.672 153.001 135.78C155.689 136.028 158.317 136.152 160.824 136.554C165.496 137.154 170.12 138.105 174.656 139.4C178.395 140.485 182.05 141.856 185.589 143.5C188.245 144.782 190.809 146.255 193.26 147.909C194.789 148.98 196.247 150.153 197.625 151.421C198.078 151.885 198.425 152.226 198.636 152.489C198.755 152.595 198.857 152.721 198.938 152.86V152.86Z" fill="#263238"/>
<path d="M22.7562 190.578C22.4974 189.845 22.3053 189.089 22.1824 188.319C21.8653 186.849 21.4576 184.714 20.9592 182.131C19.9928 176.855 18.7696 169.553 17.6068 161.446C16.4441 153.34 15.5531 145.976 15.0095 140.654C14.7226 137.993 14.5262 135.827 14.4205 134.326C14.3104 133.558 14.28 132.78 14.3299 132.005C14.5185 132.757 14.6498 133.523 14.7226 134.295C14.934 135.935 15.2209 138.039 15.5531 140.592C16.2478 145.898 17.2293 153.247 18.3921 161.338C19.5549 169.429 20.6723 176.809 21.518 182.038C21.9106 184.56 22.2428 186.679 22.4844 188.304C22.6359 189.053 22.7268 189.813 22.7562 190.578Z" fill="#263238"/>
<path d="M84.8067 195.9C84.5462 195.936 84.282 195.936 84.0215 195.9H81.7564C79.7932 195.9 76.9392 195.9 73.4357 195.714C66.3987 195.467 56.7039 194.91 46.0125 193.827C35.3211 192.744 25.7018 191.336 18.8309 190.16C15.3577 189.573 12.564 189.062 10.6311 188.613L8.41129 188.149C8.15429 188.098 7.90177 188.026 7.65625 187.933C7.91647 187.892 8.18128 187.892 8.4415 187.933L10.6915 188.257L18.9215 189.511C25.8679 190.532 35.5325 191.847 46.1031 192.93C56.6738 194.013 66.4591 194.662 73.466 195.049L81.7714 195.482L84.0366 195.622C84.3044 195.678 84.5635 195.772 84.8067 195.9Z" fill="#263238"/>
<path d="M763.29 161.013C763.29 161.013 754.773 140.808 755.015 140.128C756.329 136.507 761.221 126.575 761.221 126.575C764.275 128.356 767.234 130.303 770.086 132.408C776.035 136.753 781.558 141.68 786.576 147.12C789.2 150.086 790.654 153.947 790.653 157.95V174.875L763.29 161.013Z" fill="#EBEBEB"/>
<path d="M577.881 67.3994C576.695 69.3126 575.373 71.1329 573.924 72.8452C572.697 74.7304 571.329 76.5149 569.832 78.1826C570.673 76.0629 571.846 74.098 573.305 72.3656C574.553 70.4632 576.099 68.7851 577.881 67.3994V67.3994Z" fill="#263238"/>
<path d="M23.5723 67.8638C23.5723 67.8638 88.1286 73.2786 87.4189 74.7328C86.7091 76.1871 23.5723 96.1134 23.5723 96.1134V67.8638Z" fill="#EBEBEB"/>
<path d="M23.3763 96.9177C22.9877 92.107 22.8566 87.278 22.9837 82.4525C22.8561 77.6273 22.9821 72.7986 23.3612 67.9873C23.7695 72.7969 23.9056 77.6268 23.769 82.4525C23.8961 87.278 23.765 92.107 23.3763 96.9177V96.9177Z" fill="#263238"/>
<path d="M716.357 173.87L716.01 173.313C715.783 172.926 715.466 172.354 715.013 171.642C714.137 170.095 712.718 168.053 710.785 165.376C708.38 162.113 705.773 159.012 702.978 156.094C699.244 152.142 695.131 148.586 690.701 145.481C685.271 141.588 679.313 138.534 673.017 136.415C665.607 134.039 657.889 132.829 650.124 132.826C641.332 132.627 632.552 133.589 624 135.688C619.386 136.779 614.874 138.28 610.515 140.174C605.945 142.074 601.615 144.531 597.619 147.492L597.483 147.585H597.347L499.1 137.637L407.8 128.355L405.188 128.076L402.575 127.937L397.396 127.689L387.248 127.225L367.828 126.514C355.295 126.127 343.667 125.879 332.96 125.725C311.653 125.4 294.393 125.369 282.463 125.307L268.736 125.229H265.157H263.949H265.157H268.736H282.463C294.393 125.229 311.653 125.137 332.975 125.384C343.637 125.508 355.31 125.709 367.858 126.08C374.13 126.266 380.604 126.488 387.278 126.746L397.426 127.194L402.621 127.442L405.233 127.581L407.861 127.844L499.161 137.127L597.422 147.152L597.166 147.229C601.217 144.231 605.608 141.748 610.243 139.834C614.64 137.939 619.186 136.433 623.834 135.332C632.444 133.249 641.28 132.302 650.124 132.516C657.949 132.547 665.724 133.794 673.183 136.214C679.516 138.397 685.5 141.524 690.942 145.496C695.383 148.629 699.497 152.221 703.219 156.217C705.997 159.162 708.585 162.289 710.966 165.577C712.884 168.285 714.258 170.42 715.119 171.92C715.979 173.421 716.357 173.87 716.357 173.87Z" fill="#263238"/>
<path d="M534.678 214.712H531.658L522.99 214.604L491.112 214.078L385.964 212.051L328.052 210.906H324.73C323.625 210.919 322.521 210.862 321.423 210.736C319.293 210.32 317.222 209.628 315.262 208.679C311.366 207.054 307.545 205.584 303.861 204.037C296.476 201.144 289.545 198.53 283.233 196.147C270.608 191.398 260.4 187.484 253.408 184.606C249.905 183.183 247.202 182.053 245.39 181.249C244.499 180.862 243.804 180.568 243.321 180.336L242.611 180.011L243.351 180.274L245.45 181.11L253.514 184.328C260.536 187.097 270.774 190.934 283.429 195.606C289.756 197.957 296.688 200.541 304.087 203.341C307.787 204.795 311.638 206.296 315.534 207.982C317.454 208.918 319.484 209.594 321.574 209.994C322.647 210.108 323.726 210.16 324.805 210.148H328.128L386.025 211.293L491.172 213.567L523.05 214.356L531.703 214.604L533.968 214.697C534.205 214.687 534.442 214.692 534.678 214.712V214.712Z" fill="#263238"/>
<path d="M517.628 62.7893C514.849 68.6218 511.799 77.2545 512.373 86.1967C512.545 89.0059 513.75 91.6439 515.745 93.5789C517.74 95.5139 520.377 96.6021 523.125 96.624L549.657 96.8251C551.558 96.8795 553.414 96.2236 554.879 94.9797C556.343 93.7358 557.315 91.9888 557.615 90.0644C557.799 88.6504 557.568 87.2123 556.951 85.9336C554.187 80.1785 551.892 81.2924 551.892 81.2924C551.892 81.2924 543.858 64.2745 531.642 57.8541C530.406 57.2316 529.062 56.8654 527.688 56.7766C526.314 56.6878 524.936 56.8782 523.633 57.3369C522.331 57.7955 521.13 58.5133 520.099 59.449C519.069 60.3847 518.229 61.5199 517.628 62.7893V62.7893Z" fill="#F7CD7E"/>
<path d="M545.097 96.7939C545.097 96.9022 546.154 96.6083 547.513 95.6027C549.348 94.3138 550.705 92.4276 551.364 90.2498C551.847 88.0954 552.03 85.8817 551.907 83.6747C551.987 82.7647 551.905 81.8475 551.666 80.9673C551.384 81.8351 551.247 82.7449 551.258 83.6592C551.184 85.7876 550.927 87.9051 550.488 89.9867C549.855 91.9783 548.682 93.744 547.105 95.0767C545.912 96.1596 545.036 96.6701 545.097 96.7939Z" fill="#263238"/>
<path d="M547.105 77.6722C546.795 76.4241 546.284 75.2373 545.595 74.1603C544.112 71.4511 542.267 68.9673 540.113 66.7808C537.962 64.5978 535.528 62.7289 532.88 61.2268C531.827 60.5126 530.663 59.9893 529.437 59.6797C529.286 59.9427 534.556 62.3407 539.464 67.4151C544.372 72.4895 546.848 77.8579 547.105 77.6722Z" fill="white"/>
<path d="M342.246 7.80566C342.358 8.07246 342.434 8.35347 342.473 8.6411C342.609 9.2754 342.775 10.0644 342.971 11.0391C343.379 13.1276 343.937 16.1444 344.587 19.8884C345.901 27.3762 347.607 37.7417 349.298 49.2829C350.99 60.8241 352.228 71.2205 352.877 78.8012C353.058 80.6886 353.179 82.4059 353.255 83.9221C353.33 85.4382 353.436 86.7377 353.451 87.8052C353.466 88.8727 353.451 89.5998 353.451 90.2496C353.474 90.5328 353.474 90.8173 353.451 91.1005C353.37 90.8244 353.33 90.5378 353.33 90.2496C353.33 89.5998 353.225 88.7953 353.149 87.8207C353.074 86.846 352.968 85.4536 352.832 83.953C352.696 82.4523 352.56 80.7351 352.349 78.8476C351.548 71.2979 350.189 60.886 348.528 49.4531C346.867 38.0202 345.221 27.6083 343.998 20.0586C343.424 16.392 342.956 13.3752 342.624 11.1628C342.488 10.1882 342.367 9.38366 342.276 8.74936C342.234 8.43678 342.223 8.12044 342.246 7.80566V7.80566Z" fill="#455A64"/>
<g opacity="0.2">
<path opacity="0.2" d="M23.5723 96.113L55.4956 76.7126L56.4167 70.8027C68.8145 72.0713 83.8551 73.2626 87.4189 74.7323C87.4189 75.7225 48.1565 88.4704 23.5723 96.113Z" fill="black"/>
</g>
<g opacity="0.2">
<path opacity="0.2" d="M755.014 140.128L772.078 154.964L790.652 157.966V174.891L763.274 160.967C759.922 152.969 756.841 145.434 755.014 140.128Z" fill="black"/>
</g>
<path d="M754.835 140.128C754.681 140.102 754.533 140.05 754.397 139.973L753.158 139.463L748.432 137.39L730.99 129.778C723.651 126.591 714.893 122.801 705.077 118.84C700.154 116.906 694.99 114.818 689.508 113.209C686.76 112.497 683.875 112.064 680.946 111.553L672.051 110.099C647.89 106.34 626.13 103.153 610.334 100.817L591.7 97.97L586.611 97.1656L585.297 96.9335C585.141 96.9231 584.988 96.8866 584.844 96.8252H585.312L586.641 96.9799L591.73 97.6297L610.47 100.198C626.296 102.426 648.132 105.504 672.233 109.279L681.142 110.718C684.057 111.244 686.956 111.677 689.765 112.404C695.337 114.06 700.471 116.164 705.409 118.113C715.21 122.12 723.953 125.957 731.277 129.221C738.601 132.485 744.49 135.177 748.553 137.065L753.219 139.277L754.427 139.865C754.572 139.937 754.709 140.025 754.835 140.128V140.128Z" fill="#263238"/>
<path d="M148.392 273.259C181.742 272.901 208.494 244.914 208.145 210.747C207.796 176.58 180.477 149.173 147.127 149.53C113.778 149.888 87.0253 177.876 87.3746 212.043C87.7238 246.209 115.042 273.617 148.392 273.259Z" fill="#263238"/>
<path d="M87.434 210.319V210.489C87.3199 218.616 88.7694 226.686 91.6996 234.238C94.6298 241.791 98.9834 248.679 104.512 254.508C115.677 266.28 130.949 273.026 146.969 273.262C162.989 273.498 178.445 267.204 189.935 255.766C201.426 244.327 208.011 228.681 208.241 212.268V212.113L87.434 210.319Z" fill="#263238"/>
<path d="M105.419 210.752C105.297 219.344 107.665 227.779 112.223 234.991C116.781 242.204 123.324 247.87 131.026 251.273C138.727 254.675 147.24 255.662 155.488 254.107C163.737 252.553 171.35 248.527 177.365 242.54C183.381 236.553 187.528 228.872 189.282 220.47C191.037 212.068 190.32 203.321 187.222 195.337C184.125 187.352 178.785 180.488 171.88 175.612C164.974 170.736 156.812 168.068 148.426 167.944C137.182 167.779 126.335 172.196 118.269 180.224C110.204 188.252 105.582 199.233 105.419 210.752V210.752Z" fill="#FAFAFA"/>
<path d="M148.427 167.944C142.859 167.86 137.33 168.901 132.155 171.007C126.98 173.113 122.26 176.244 118.266 180.219C114.272 184.194 111.082 188.937 108.878 194.176C106.674 199.415 105.499 205.048 105.42 210.752L190.211 212.005C190.373 200.486 186.061 189.373 178.226 181.11C170.39 172.847 159.671 168.111 148.427 167.944Z" fill="#E0E0E0"/>
<path d="M121.985 210.999C121.911 216.235 123.354 221.375 126.131 225.77C128.909 230.165 132.896 233.617 137.589 235.69C142.282 237.764 147.47 238.364 152.496 237.417C157.522 236.469 162.161 234.016 165.826 230.367C169.492 226.718 172.018 222.038 173.087 216.918C174.155 211.798 173.718 206.468 171.829 201.603C169.941 196.737 166.686 192.555 162.478 189.585C158.269 186.614 153.295 184.99 148.185 184.916C141.336 184.82 134.73 187.514 129.818 192.404C124.906 197.295 122.089 203.983 121.985 210.999V210.999Z" fill="#263238"/>
<path d="M648.351 273.233C681.7 272.81 708.4 244.77 707.987 210.604C707.573 176.438 680.204 149.084 646.855 149.507C613.506 149.931 586.806 177.971 587.219 212.137C587.632 246.303 615.002 273.657 648.351 273.233Z" fill="#263238"/>
<path d="M587.229 210.319C587.221 210.375 587.221 210.433 587.229 210.489C586.999 226.902 593.142 242.735 604.307 254.508C615.472 266.28 630.744 273.026 646.764 273.262C662.784 273.498 678.24 267.204 689.73 255.766C701.221 244.327 707.806 228.681 708.036 212.268V212.113L587.229 210.319Z" fill="#263238"/>
<path d="M605.198 210.752C605.076 219.343 607.444 227.779 612.002 234.991C616.56 242.204 623.104 247.87 630.805 251.272C638.506 254.675 647.019 255.661 655.268 254.107C663.516 252.553 671.129 248.527 677.145 242.54C683.16 236.552 687.307 228.872 689.062 220.47C690.816 212.068 690.099 203.321 687.002 195.336C683.904 187.352 678.565 180.487 671.659 175.612C664.753 170.736 656.591 168.068 648.205 167.944C636.962 167.783 626.117 172.201 618.053 180.228C609.989 188.255 605.365 199.234 605.198 210.752V210.752Z" fill="#FAFAFA"/>
<path d="M648.207 167.944C636.963 167.779 626.115 172.196 618.05 180.224C609.985 188.252 605.362 199.233 605.199 210.752L689.991 212.005C690.073 206.301 689.057 200.636 687.001 195.334C684.945 190.032 681.89 185.197 678.009 181.106C674.129 177.014 669.5 173.745 664.386 171.487C659.272 169.229 653.774 168.025 648.207 167.944Z" fill="#E0E0E0"/>
<path d="M621.78 211C621.709 216.232 623.154 221.37 625.933 225.761C628.712 230.152 632.7 233.6 637.392 235.669C642.084 237.738 647.27 238.334 652.293 237.383C657.316 236.432 661.951 233.976 665.612 230.325C669.272 226.675 671.794 221.994 672.857 216.875C673.92 211.756 673.478 206.43 671.585 201.568C669.693 196.707 666.436 192.53 662.226 189.566C658.016 186.602 653.042 184.984 647.935 184.916C641.091 184.825 634.492 187.521 629.588 192.412C624.684 197.303 621.875 203.988 621.78 211V211Z" fill="#263238"/>
<path d="M419.518 72.1024C419.428 71.9013 430.617 65.9141 444.51 58.7202C458.403 51.5263 469.759 45.8485 469.849 46.0496C469.94 46.2507 458.765 52.2379 444.873 59.4319C430.98 66.6258 419.624 72.3036 419.518 72.1024Z" fill="white"/>
<path d="M403.95 70.5246C403.844 70.339 414.521 64.4137 427.674 57.2971C440.826 50.1805 451.669 44.5801 451.835 44.7657C452.001 44.9514 441.264 50.9541 428.096 58.0088C414.928 65.0635 404.041 70.7258 403.95 70.5246Z" fill="white"/>
<path d="M248.244 67.8792C248.949 67.4894 249.681 67.1533 250.434 66.8736L256.474 64.4137L276.453 56.1987L296.28 47.829L302.32 45.2918C303.04 44.9428 303.788 44.658 304.555 44.4409C303.889 44.8879 303.181 45.2662 302.441 45.5703C301.052 46.251 299.028 47.1947 296.522 48.355C291.508 50.6447 284.547 53.708 276.77 56.9414C268.993 60.1748 261.91 62.944 256.761 64.8778C254.179 65.8525 252.08 66.6106 250.63 67.1056C249.859 67.4353 249.06 67.6941 248.244 67.8792Z" fill="white"/>
<path d="M262.635 50.9074C266.828 48.5406 271.143 46.4077 275.561 44.518C279.876 42.3876 284.302 40.5024 288.82 38.8711C284.628 41.2416 280.313 43.3746 275.893 45.2605C271.575 47.383 267.149 49.2679 262.635 50.9074Z" fill="white"/>
<path d="M790.667 174.891C790.544 174.082 790.494 173.264 790.516 172.446C790.516 170.744 790.516 168.501 790.381 165.809C790.245 163.117 790.38 159.621 790.214 156.001C790.048 152.381 787.285 149.07 784.718 145.79C782.156 142.777 779.291 140.05 776.171 137.652C773.332 135.378 770.689 133.429 768.454 131.804L763.138 128.014C762.462 127.589 761.82 127.108 761.221 126.575C761.948 126.903 762.645 127.297 763.305 127.751C764.618 128.571 766.491 129.778 768.771 131.34C771.051 132.903 773.739 134.806 776.609 137.064C779.809 139.454 782.732 142.21 785.322 145.279C786.648 146.882 787.864 148.578 788.961 150.354C790.051 152.019 790.73 153.93 790.939 155.923C791.075 159.698 790.939 162.993 790.939 165.809C790.939 168.625 790.849 170.744 790.818 172.446C790.841 173.264 790.791 174.082 790.667 174.891V174.891Z" fill="#263238"/>
</svg>
