<svg width="1303" height="653" viewBox="0 0 1303 653" fill="none" xmlns="http://www.w3.org/2000/svg">
<g opacity="0.3">
<path opacity="0.3" d="M470.158 79.8883C470.158 79.6086 470.158 79.3142 470.158 78.9903C470.304 75.8787 469.533 72.7917 467.938 70.0995C466.343 67.4073 463.991 65.2241 461.164 63.8115C449.338 57.0687 442.473 63.8115 439.041 69.8035C435.608 75.7955 430.272 66.0641 421.878 67.183C413.484 68.3018 413.874 77.2972 411.581 82.1703C409.287 87.0434 404.341 80.6981 397.851 81.8022C391.36 82.9064 390.986 86.6606 389.846 88.1623C388.707 89.664 378.365 85.9981 372.639 88.9426C368.998 91.0087 365.974 93.9789 363.87 97.5551H488.984C488.984 97.5551 490.483 88.5745 485.552 85.2031C481.115 82.1408 471.027 86.9845 470.158 79.8883Z" stroke="black" stroke-linecap="round" stroke-linejoin="round"/>
<path opacity="0.3" d="M412.105 91.1068C411.679 91.2039 411.283 91.4009 410.951 91.6809C409.332 93.0648 409.332 94.0512 409.332 94.0512" stroke="black" stroke-linecap="round" stroke-linejoin="round"/>
<path opacity="0.3" d="M439.745 79.4614C438.621 81.8611 437.647 84.4817 435.353 85.5417C432.071 87.014 428.998 83.6425 425.985 82.877C425.127 82.6032 424.203 82.5978 423.341 82.8615C422.479 83.1252 421.722 83.645 421.174 84.3492C419.825 85.8214 419.795 89.3401 418.011 90.3265C416.913 90.7397 415.738 90.9203 414.563 90.8565" stroke="black" stroke-linecap="round" stroke-linejoin="round"/>
<path opacity="0.3" d="M476.978 90.5326C476.888 90.3118 476.798 90.1056 476.693 89.8995C474.28 85.1737 468.599 88.972 465.107 87.647C461.989 86.4692 463.008 81.6403 462.588 79.1228C461.779 74.2497 455.544 70.5249 450.672 71.2758C447.05 71.8747 443.773 73.7482 441.454 76.5464" stroke="black" stroke-linecap="round" stroke-linejoin="round"/>
<path opacity="0.3" d="M477.967 94.8315C477.875 93.9902 477.735 93.1546 477.548 92.3287" stroke="black" stroke-linecap="round" stroke-linejoin="round"/>
</g>
<g opacity="0.3">
<path opacity="0.3" d="M240.106 136.879C240.042 136.39 240.012 135.898 240.016 135.406C239.881 124.438 235.729 116.841 225.611 111.07C206.665 100.264 195.633 111.07 190.162 120.684C184.691 130.298 176.102 114.677 162.642 116.473C149.182 118.269 149.811 132.668 146.154 140.5C142.497 148.332 134.538 138.1 124.135 139.897C113.733 141.693 113.133 147.699 111.304 150.099C109.476 152.499 92.9579 146.507 83.7845 151.306C77.9406 154.612 73.0901 159.376 69.7248 165.116H270.249C270.249 165.116 272.692 150.718 264.748 145.3C257.628 140.471 241.47 148.259 240.106 136.879Z" stroke="black" stroke-linecap="round" stroke-linejoin="round"/>
<path opacity="0.3" d="M147.023 154.855C146.338 155.016 145.702 155.334 145.165 155.782C142.587 158.005 142.587 159.58 142.587 159.58" stroke="black" stroke-linecap="round" stroke-linejoin="round"/>
<path opacity="0.3" d="M191.361 136.201C189.577 140.044 188.004 144.24 184.316 145.933C179.07 148.347 174.154 142.9 169.327 141.663C167.957 141.227 166.483 141.214 165.104 141.628C163.726 142.041 162.511 142.86 161.623 143.975C159.449 146.433 159.404 151.984 156.542 153.559C154.782 154.231 152.895 154.522 151.011 154.413" stroke="black" stroke-linecap="round" stroke-linejoin="round"/>
<path opacity="0.3" d="M251.003 153.942C250.853 153.588 250.703 153.25 250.538 152.926C246.686 145.344 237.572 151.454 231.967 149.319C226.99 147.434 228.624 139.705 227.949 135.657C226.66 127.839 216.663 121.876 208.838 123.084C203.038 124.043 197.79 127.041 194.074 131.52" stroke="black" stroke-linecap="round" stroke-linejoin="round"/>
<path opacity="0.3" d="M252.576 160.876C252.443 159.534 252.222 158.201 251.917 156.886" stroke="black" stroke-linecap="round" stroke-linejoin="round"/>
</g>
<g opacity="0.3">
<path opacity="0.3" d="M1082.43 89.889C1082.43 89.6092 1082.43 89.3148 1082.43 88.9909C1082.58 85.8793 1081.81 82.7924 1080.21 80.1002C1078.62 77.408 1076.27 75.2247 1073.44 73.8122C1061.61 67.0693 1054.75 73.8122 1051.32 79.8042C1047.88 85.7962 1042.55 76.0647 1034.15 77.1836C1025.76 78.3025 1026.15 87.2978 1023.86 92.1709C1021.56 97.044 1016.62 90.6987 1010.13 91.8029C1003.64 92.9071 1003.26 96.6612 1002.12 98.1629C1000.98 99.6646 990.64 95.9987 984.914 98.9432C981.273 101.009 978.249 103.98 976.146 107.556H1101.26C1101.26 107.556 1102.76 98.5752 1097.83 95.2037C1093.39 92.1415 1083.3 96.9851 1082.43 89.889Z" stroke="black" stroke-linecap="round" stroke-linejoin="round"/>
<path opacity="0.3" d="M1024.38 101.107C1023.95 101.205 1023.56 101.402 1023.23 101.682C1021.61 103.065 1021.61 104.052 1021.61 104.052" stroke="black" stroke-linecap="round" stroke-linejoin="round"/>
<path opacity="0.3" d="M1052.02 89.462C1050.9 91.8618 1049.92 94.4824 1047.63 95.5424C1044.35 97.0146 1041.27 93.6432 1038.26 92.8776C1037.4 92.6039 1036.48 92.5985 1035.62 92.8622C1034.75 93.1259 1034 93.6456 1033.45 94.3499C1032.1 95.8221 1032.07 99.3407 1030.29 100.327C1029.19 100.74 1028.01 100.921 1026.84 100.857" stroke="black" stroke-linecap="round" stroke-linejoin="round"/>
<path opacity="0.3" d="M1089.25 100.533C1089.16 100.312 1089.07 100.106 1088.97 99.9002C1086.56 95.1743 1080.87 98.9727 1077.38 97.6477C1074.26 96.4699 1075.28 91.6409 1074.86 89.1234C1074.05 84.2503 1067.82 80.5256 1062.95 81.2764C1059.32 81.8754 1056.05 83.7489 1053.73 86.547" stroke="black" stroke-linecap="round" stroke-linejoin="round"/>
<path opacity="0.3" d="M1090.24 104.832C1090.15 103.991 1090.01 103.155 1089.82 102.329" stroke="black" stroke-linecap="round" stroke-linejoin="round"/>
</g>
<g opacity="0.3">
<path opacity="0.3" d="M852.381 146.879C852.317 146.391 852.287 145.899 852.291 145.407C852.156 134.439 848.004 126.842 837.886 121.071C818.94 110.265 807.908 121.071 802.437 130.685C796.966 140.298 788.377 124.678 774.917 126.474C761.457 128.27 762.087 142.669 758.429 150.501C754.772 158.333 746.813 148.101 736.41 149.897C726.008 151.693 725.408 157.7 723.58 160.1C721.751 162.5 705.233 156.508 696.06 161.307C690.216 164.612 685.365 169.377 682 175.117H882.524C882.524 175.117 884.967 160.718 877.023 155.3C869.903 150.471 853.745 158.26 852.381 146.879Z" stroke="black" stroke-linecap="round" stroke-linejoin="round"/>
<path opacity="0.3" d="M759.299 164.855C758.614 165.017 757.977 165.335 757.44 165.783C754.862 168.006 754.862 169.581 754.862 169.581" stroke="black" stroke-linecap="round" stroke-linejoin="round"/>
<path opacity="0.3" d="M803.636 146.202C801.853 150.044 800.279 154.24 796.591 155.933C791.345 158.348 786.429 152.901 781.602 151.664C780.232 151.227 778.758 151.215 777.38 151.628C776.002 152.042 774.786 152.861 773.898 153.975C771.725 156.434 771.68 161.984 768.817 163.56C767.057 164.231 765.17 164.523 763.286 164.413" stroke="black" stroke-linecap="round" stroke-linejoin="round"/>
<path opacity="0.3" d="M863.278 163.942C863.128 163.589 862.978 163.25 862.813 162.927C858.961 155.345 849.848 161.454 844.242 159.32C839.265 157.435 840.899 149.706 840.225 145.657C838.936 137.84 828.938 131.877 821.114 133.084C815.313 134.043 810.065 137.042 806.349 141.52" stroke="black" stroke-linecap="round" stroke-linejoin="round"/>
<path opacity="0.3" d="M864.852 170.877C864.718 169.534 864.498 168.202 864.192 166.887" stroke="black" stroke-linecap="round" stroke-linejoin="round"/>
</g>
<path d="M57.8535 382.874C105.654 337.662 216.738 233.855 228.609 233.855C243.838 233.855 344.879 305.906 344.879 305.906C344.879 305.906 497.138 172.668 515.125 174.023C533.112 175.377 706.146 361.644 706.146 361.644" stroke="#B2B2B2" stroke-linecap="round" stroke-linejoin="round"/>
<path d="M426.615 238.625L485.417 215.525L496.194 246.324L507.96 238.625L516.789 249.21L529.53 230.925L577.555 286.767L578.529 243.439L592.244 252.096L593.233 243.439" stroke="#B2B2B2" stroke-linecap="round" stroke-linejoin="round"/>
<path d="M172.76 278.095L195.303 271.352L196.278 280.981L217.847 274.253L213.92 299.281L252.142 275.21L281.55 297.352L283.514 284.838L292.328 291.566L302.13 276.167" stroke="#B2B2B2" stroke-linecap="round" stroke-linejoin="round"/>
<path d="M602 382.861C649.8 337.649 760.884 233.842 772.756 233.842C787.984 233.842 889.026 305.893 889.026 305.893C889.026 305.893 1041.28 172.656 1059.27 174.01C1077.26 175.365 1250.29 361.632 1250.29 361.632" stroke="#B2B2B2" stroke-linecap="round" stroke-linejoin="round"/>
<path d="M970.761 238.612L1029.56 215.513L1040.34 246.312L1052.11 238.612L1060.94 249.197L1073.68 230.912L1121.7 286.754L1122.68 243.426L1136.39 252.083L1137.38 243.426" stroke="#B2B2B2" stroke-linecap="round" stroke-linejoin="round"/>
<path d="M716.906 278.083L739.45 271.34L740.424 280.968L761.993 274.24L758.066 299.268L796.288 275.197L825.697 297.339L827.66 284.825L836.474 291.553L846.277 276.154" stroke="#B2B2B2" stroke-linecap="round" stroke-linejoin="round"/>
<path d="M326.158 345.435C326.158 344.832 325.708 344.39 325.259 344.478L299.522 349.896C298.608 350.087 298.248 348.424 299.088 347.953L325.019 333.584C325.181 333.47 325.309 333.316 325.391 333.138C325.473 332.959 325.505 332.762 325.483 332.568C324.404 314.209 322.74 294.069 320.567 273.517C320.567 272.942 320.087 272.545 319.653 272.648L296.884 278.39C296.045 278.596 295.595 277.168 296.3 276.549L318.259 256.939C318.389 256.809 318.486 256.651 318.544 256.477C318.601 256.303 318.616 256.119 318.588 255.938C317.419 246.015 316.13 236.092 314.736 226.317L312.938 216.556C312.833 215.937 312.323 215.599 311.888 215.849L298.638 223.019C297.844 223.446 297.139 222.15 297.784 221.355L310.974 204.101C311.072 203.966 311.141 203.813 311.178 203.651C311.214 203.489 311.216 203.321 311.184 203.158C308.546 187.082 305.638 171.785 302.49 158.02C302.34 157.372 301.771 157.092 301.336 157.446L284.293 171.196C283.574 171.785 282.795 170.652 283.259 169.724L298.248 142.193C298.403 141.903 298.441 141.567 298.353 141.251C296.067 132.487 293.239 123.868 289.884 115.443C289.689 114.972 289.255 114.78 288.895 115.001L277.039 121.818C276.424 122.171 275.78 121.42 275.974 120.596L279.707 105.873C279.707 105.608 280.037 104.533 280.321 103.591L281.296 99.8076C278.553 96.4951 275.735 94.6695 272.857 94.6695C269.979 94.6695 266.771 96.7307 263.863 100.558L268.285 120.625C268.48 121.449 267.835 122.2 267.221 121.847L256.564 115.708C256.469 115.66 256.364 115.635 256.258 115.633C256.151 115.631 256.045 115.653 255.949 115.697C255.852 115.741 255.767 115.806 255.699 115.886C255.632 115.967 255.584 116.062 255.559 116.164C252.126 124.97 249.238 133.972 246.911 143.121C246.826 143.435 246.858 143.769 247.001 144.063L261.045 169.783C261.54 170.696 260.731 171.829 260.011 171.255L244.168 158.506C243.733 158.152 243.163 158.432 243.014 159.08C239.851 173.037 236.928 188.524 234.275 204.793C234.223 205.123 234.304 205.461 234.5 205.735L246.491 221.414C247.091 222.209 246.491 223.505 245.652 223.078L233.331 216.409C232.881 216.158 232.356 216.512 232.266 217.145C230.288 230.233 228.504 243.645 226.915 257.131C226.891 257.309 226.908 257.49 226.965 257.661C227.022 257.832 227.118 257.988 227.245 258.117L247.9 276.549C248.589 277.168 248.14 278.596 247.315 278.39L226.031 272.972C225.581 272.854 225.162 273.252 225.102 273.826C222.913 294.555 221.249 314.842 220.185 333.304C220.161 333.499 220.191 333.697 220.273 333.876C220.355 334.055 220.485 334.208 220.65 334.32L245.157 347.909C245.996 348.38 245.637 350.043 244.722 349.852L220.44 344.743C219.99 344.64 219.571 345.097 219.541 345.7C219.076 356.315 218.821 366.15 218.821 374.895C218.821 380.43 218.921 385.75 219.121 390.854C219.114 391.042 219.161 391.229 219.257 391.393C219.352 391.557 219.492 391.691 219.661 391.781L245.322 402.337C246.146 402.676 245.996 404.251 245.142 404.325L220.935 406.43C220.688 406.496 220.475 406.651 220.339 406.863C220.203 407.076 220.154 407.331 220.2 407.578C221.271 422.243 223.934 436.753 228.144 450.862C228.294 451.362 228.714 451.598 229.104 451.436L243.973 445.135C244.737 444.811 245.322 446.033 244.782 446.799L233.226 462.89C233.104 463.071 233.032 463.28 233.016 463.497C233 463.713 233.041 463.93 233.136 464.127C242.999 485.474 257.118 494.705 272.857 494.705C288.251 494.705 302.145 485.872 311.993 465.378C312.083 465.178 312.122 464.96 312.107 464.741C312.091 464.523 312.021 464.312 311.903 464.127L299.522 446.857C298.983 446.092 299.522 444.87 300.332 445.194L316.49 452.054C316.591 452.088 316.699 452.099 316.805 452.087C316.912 452.076 317.014 452.041 317.106 451.986C317.197 451.932 317.275 451.858 317.334 451.771C317.394 451.683 317.433 451.584 317.449 451.48C321.752 437.241 324.471 422.585 325.558 407.77C325.605 407.523 325.555 407.267 325.419 407.055C325.283 406.842 325.071 406.687 324.824 406.621L299.163 404.383C298.308 404.31 298.158 402.735 298.983 402.396L325.753 391.398C325.891 391.331 326.01 391.231 326.099 391.108C326.188 390.985 326.244 390.842 326.263 390.692L326.653 388.822C326.653 388.822 326.653 388.675 326.653 388.601C326.787 384.184 326.862 379.694 326.862 374.998C326.892 366.12 326.638 356.168 326.158 345.435Z" fill="#FF725E"/>
<path opacity="0.4" d="M326.158 345.435C326.158 344.832 325.708 344.39 325.259 344.478L299.522 349.896C298.608 350.087 298.248 348.424 299.088 347.953L325.019 333.584C325.181 333.47 325.309 333.316 325.391 333.138C325.473 332.959 325.505 332.762 325.483 332.568C324.404 314.209 322.74 294.069 320.567 273.517C320.567 272.942 320.087 272.545 319.653 272.648L296.884 278.39C296.045 278.596 295.595 277.168 296.3 276.549L318.259 256.939C318.389 256.809 318.486 256.651 318.544 256.477C318.601 256.303 318.616 256.119 318.588 255.938C317.419 246.015 316.13 236.092 314.736 226.317L312.938 216.556C312.833 215.937 312.323 215.599 311.888 215.849L298.638 223.019C297.844 223.446 297.139 222.15 297.784 221.355L310.974 204.101C311.072 203.966 311.141 203.813 311.178 203.651C311.214 203.489 311.216 203.321 311.184 203.158C308.546 187.082 305.638 171.785 302.49 158.02C302.34 157.372 301.771 157.092 301.336 157.446L284.293 171.196C283.574 171.785 282.795 170.652 283.259 169.724L298.248 142.193C298.403 141.903 298.441 141.567 298.353 141.251C296.067 132.487 293.239 123.868 289.884 115.443C289.689 114.972 289.255 114.78 288.895 115.001L277.039 121.818C276.424 122.171 275.78 121.42 275.974 120.596L279.707 105.873C279.707 105.608 280.037 104.533 280.321 103.591L281.296 99.8076C278.553 96.4951 275.735 94.6695 272.857 94.6695C269.979 94.6695 266.771 96.7307 263.863 100.558L268.285 120.625C268.48 121.449 267.835 122.2 267.221 121.847L256.564 115.708C256.469 115.66 256.364 115.635 256.258 115.633C256.151 115.631 256.045 115.653 255.949 115.697C255.852 115.741 255.767 115.806 255.699 115.886C255.632 115.967 255.584 116.062 255.559 116.164C252.126 124.97 249.238 133.972 246.911 143.121C246.826 143.435 246.858 143.769 247.001 144.063L261.045 169.783C261.54 170.696 260.731 171.829 260.011 171.255L244.168 158.506C243.733 158.152 243.163 158.432 243.014 159.08C239.851 173.037 236.928 188.524 234.275 204.793C234.223 205.123 234.304 205.461 234.5 205.735L246.491 221.414C247.091 222.209 246.491 223.505 245.652 223.078L233.331 216.409C232.881 216.158 232.356 216.512 232.266 217.145C230.288 230.233 228.504 243.645 226.915 257.131C226.891 257.309 226.908 257.49 226.965 257.661C227.022 257.832 227.118 257.988 227.245 258.117L247.9 276.549C248.589 277.168 248.14 278.596 247.315 278.39L226.031 272.972C225.581 272.854 225.162 273.252 225.102 273.826C222.913 294.555 221.249 314.842 220.185 333.304C220.161 333.499 220.191 333.697 220.273 333.876C220.355 334.055 220.485 334.208 220.65 334.32L245.157 347.909C245.996 348.38 245.637 350.043 244.722 349.852L220.44 344.743C219.99 344.64 219.571 345.097 219.541 345.7C219.076 356.315 218.821 366.15 218.821 374.895C218.821 380.43 218.921 385.75 219.121 390.854C219.114 391.042 219.161 391.229 219.257 391.393C219.352 391.557 219.492 391.691 219.661 391.781L245.322 402.337C246.146 402.676 245.996 404.251 245.142 404.325L220.935 406.43C220.688 406.496 220.475 406.651 220.339 406.863C220.203 407.076 220.154 407.331 220.2 407.578C221.271 422.243 223.934 436.753 228.144 450.862C228.294 451.362 228.714 451.598 229.104 451.436L243.973 445.135C244.737 444.811 245.322 446.033 244.782 446.799L233.226 462.89C233.104 463.071 233.032 463.28 233.016 463.497C233 463.713 233.041 463.93 233.136 464.127C242.999 485.474 257.118 494.705 272.857 494.705C288.251 494.705 302.145 485.872 311.993 465.378C312.083 465.178 312.122 464.96 312.107 464.741C312.091 464.523 312.021 464.312 311.903 464.127L299.522 446.857C298.983 446.092 299.522 444.87 300.332 445.194L316.49 452.054C316.591 452.088 316.699 452.099 316.805 452.087C316.912 452.076 317.014 452.041 317.106 451.986C317.197 451.932 317.275 451.858 317.334 451.771C317.394 451.683 317.433 451.584 317.449 451.48C321.752 437.241 324.471 422.585 325.558 407.77C325.605 407.523 325.555 407.267 325.419 407.055C325.283 406.842 325.071 406.687 324.824 406.621L299.163 404.383C298.308 404.31 298.158 402.735 298.983 402.396L325.753 391.398C325.891 391.331 326.01 391.231 326.099 391.108C326.188 390.985 326.244 390.842 326.263 390.692L326.653 388.822C326.653 388.822 326.653 388.675 326.653 388.601C326.787 384.184 326.862 379.694 326.862 374.998C326.892 366.12 326.638 356.168 326.158 345.435Z" fill="white"/>
<path d="M275 417.913L273.351 325.648L302.22 302.137L273.127 313.753L272.587 283.587L272.347 284.072L272.527 279.656L271.748 236.298L295.655 214.612L272.212 228.437L271.688 233.03L270.728 179.294L270.204 189.879L267.671 270.189L266.576 268.055L247.825 256.071L267.521 274.886L264.313 376.705L234.695 367.563L263.983 387.335L261.78 457.266L250.628 455.087L261.435 468.337L260.221 506.453L258.752 586.249H278.013L275.15 426.276L298.473 420.99L275 417.913Z" fill="#263238"/>
<path opacity="0.5" d="M275 417.913L273.351 325.648L302.22 302.137L273.127 313.753L272.587 283.587L272.347 284.072L272.527 279.656L271.748 236.298L295.655 214.612L272.212 228.437L271.688 233.03L270.728 179.294L270.204 189.879L267.671 270.189L266.576 268.055L247.825 256.071L267.521 274.886L264.313 376.705L234.695 367.563L263.983 387.335L261.78 457.266L250.628 455.087L261.435 468.337L260.221 506.453L258.752 586.249H278.013L275.15 426.276L298.473 420.99L275 417.913Z" fill="white"/>
<path d="M164.381 385.509C164.381 385.009 164.006 384.641 163.631 384.714L142.197 389.278C141.433 389.44 141.133 388.042 141.837 387.659L163.437 375.675C163.575 375.585 163.687 375.459 163.758 375.311C163.829 375.163 163.858 374.999 163.841 374.836C162.942 359.524 161.548 342.741 159.734 325.619C159.734 325.133 159.345 324.794 158.97 324.898L139.994 329.668C139.304 329.844 138.914 328.652 139.499 328.195L157.816 311.854C157.924 311.743 158.005 311.611 158.054 311.465C158.104 311.32 158.119 311.166 158.1 311.014C157.111 302.755 156.032 294.481 154.878 286.325L153.379 278.184C153.289 277.683 152.869 277.403 152.495 277.595L141.448 283.587C140.803 283.94 140.248 282.851 140.743 282.188L151.745 267.804C151.904 267.576 151.968 267.297 151.925 267.024C149.722 253.612 147.293 240.862 144.67 229.394C144.55 228.864 144.071 228.628 143.711 228.923L129.471 240.377C128.872 240.862 128.197 239.92 128.602 239.169L141.133 216.217C141.255 215.975 141.282 215.697 141.208 215.437C139.306 208.119 136.953 200.921 134.163 193.883C133.998 193.501 133.638 193.339 133.338 193.515L123.461 199.213C122.951 199.507 122.411 198.874 122.576 198.182L125.679 185.948C125.679 185.727 125.949 184.829 126.189 184.049L126.998 180.884C124.705 178.116 122.366 176.599 119.968 176.599C117.57 176.599 114.902 178.322 112.474 181.458L116.161 198.182C116.326 198.874 115.786 199.507 115.277 199.213L106.388 194.09C106.073 193.913 105.714 194.09 105.549 194.472C102.695 201.814 100.288 209.316 98.339 216.939C98.3005 217.068 98.2887 217.204 98.3041 217.338C98.3195 217.472 98.362 217.601 98.4289 217.719L110.105 239.11C110.525 239.861 109.851 240.804 109.251 240.318L96.0457 229.688C95.6709 229.394 95.2063 229.688 95.0714 230.174C92.4483 241.805 90.0051 254.716 87.8017 268.275C87.7745 268.411 87.7765 268.55 87.8075 268.684C87.8384 268.819 87.8977 268.945 87.9815 269.056L97.9643 282.129C98.4739 282.792 97.9643 283.881 97.2598 283.528L87.0672 278.007C86.6925 277.801 86.2578 278.095 86.1829 278.625C84.5341 289.534 83.0501 300.709 81.6861 311.942C81.6682 312.082 81.6817 312.225 81.7257 312.36C81.7697 312.494 81.8432 312.618 81.941 312.722L99.1484 328.078C99.733 328.593 99.3583 329.785 98.6688 329.55L80.8767 325.133C80.502 325.045 80.1573 325.369 80.1123 325.854C78.2836 343.124 76.8896 360.04 76.0053 375.425C75.9857 375.588 76.0116 375.754 76.0803 375.904C76.1489 376.055 76.2576 376.184 76.395 376.279L96.93 387.615C97.6345 387.997 97.3347 389.396 96.5853 389.234L76.335 384.979C75.9603 384.891 75.6156 385.274 75.5856 385.774C75.1959 394.608 74.986 402.823 74.986 410.11C74.986 414.719 75.076 419.165 75.2408 423.361C75.2341 423.517 75.2728 423.672 75.3524 423.808C75.432 423.943 75.5493 424.054 75.6905 424.126L97.0349 432.96C97.7095 433.239 97.5895 434.55 96.8851 434.623L76.6348 436.39C76.2601 436.39 75.9903 436.861 76.0353 437.347C76.9264 449.572 79.1423 461.668 82.6454 473.431C82.7803 473.843 83.1251 474.05 83.4548 473.902L95.8358 468.646C96.4803 468.381 96.975 469.397 96.5103 470.03L86.9323 483.398C86.847 483.557 86.8024 483.734 86.8024 483.914C86.8024 484.093 86.847 484.27 86.9323 484.429C95.1613 502.228 106.943 509.928 120.043 509.928C132.874 509.928 144.46 502.567 152.659 485.474C152.751 485.315 152.8 485.135 152.8 484.951C152.8 484.768 152.751 484.588 152.659 484.429L142.347 470.03C141.897 469.397 142.347 468.381 143.021 468.646L156.512 474.359C156.826 474.506 157.186 474.359 157.306 473.888C160.896 462.018 163.162 449.8 164.066 437.45C164.1 437.244 164.057 437.033 163.943 436.857C163.83 436.681 163.655 436.551 163.452 436.493L141.897 434.608C141.178 434.535 141.058 433.225 141.747 432.945L164.066 423.788C164.181 423.732 164.279 423.648 164.352 423.546C164.426 423.443 164.472 423.323 164.486 423.199L164.816 421.638C164.816 421.638 164.816 421.52 164.816 421.447C164.935 417.796 164.995 414.017 164.995 410.11C165.01 402.749 164.801 394.461 164.381 385.509Z" fill="#FF725E"/>
<path opacity="0.4" d="M164.381 385.509C164.381 385.009 164.006 384.641 163.631 384.714L142.197 389.278C141.433 389.44 141.133 388.042 141.837 387.659L163.437 375.675C163.575 375.585 163.687 375.459 163.758 375.311C163.829 375.163 163.858 374.999 163.841 374.836C162.942 359.524 161.548 342.741 159.734 325.619C159.734 325.133 159.345 324.794 158.97 324.898L139.994 329.668C139.304 329.844 138.914 328.652 139.499 328.195L157.816 311.854C157.924 311.743 158.005 311.611 158.054 311.465C158.104 311.32 158.119 311.166 158.1 311.014C157.111 302.755 156.032 294.481 154.878 286.325L153.379 278.184C153.289 277.683 152.869 277.403 152.495 277.595L141.448 283.587C140.803 283.94 140.248 282.851 140.743 282.188L151.745 267.804C151.904 267.576 151.968 267.297 151.925 267.024C149.722 253.612 147.293 240.862 144.67 229.394C144.55 228.864 144.071 228.628 143.711 228.923L129.471 240.377C128.872 240.862 128.197 239.92 128.602 239.169L141.133 216.217C141.255 215.975 141.282 215.697 141.208 215.437C139.306 208.119 136.953 200.921 134.163 193.883C133.998 193.501 133.638 193.339 133.338 193.515L123.461 199.213C122.951 199.507 122.411 198.874 122.576 198.182L125.679 185.948C125.679 185.727 125.949 184.829 126.189 184.049L126.998 180.884C124.705 178.116 122.366 176.599 119.968 176.599C117.57 176.599 114.902 178.322 112.474 181.458L116.161 198.182C116.326 198.874 115.786 199.507 115.277 199.213L106.388 194.09C106.073 193.913 105.714 194.09 105.549 194.472C102.695 201.814 100.288 209.316 98.339 216.939C98.3005 217.068 98.2887 217.204 98.3041 217.338C98.3195 217.472 98.362 217.601 98.4289 217.719L110.105 239.11C110.525 239.861 109.851 240.804 109.251 240.318L96.0457 229.688C95.6709 229.394 95.2063 229.688 95.0714 230.174C92.4483 241.805 90.0051 254.716 87.8017 268.275C87.7745 268.411 87.7765 268.55 87.8075 268.684C87.8384 268.819 87.8977 268.945 87.9815 269.056L97.9643 282.129C98.4739 282.792 97.9643 283.881 97.2598 283.528L87.0672 278.007C86.6925 277.801 86.2578 278.095 86.1829 278.625C84.5341 289.534 83.0501 300.709 81.6861 311.942C81.6682 312.082 81.6817 312.225 81.7257 312.36C81.7697 312.494 81.8432 312.618 81.941 312.722L99.1484 328.078C99.733 328.593 99.3583 329.785 98.6688 329.55L80.8767 325.133C80.502 325.045 80.1573 325.369 80.1123 325.854C78.2836 343.124 76.8896 360.04 76.0053 375.425C75.9857 375.588 76.0116 375.754 76.0803 375.904C76.1489 376.055 76.2576 376.184 76.395 376.279L96.93 387.615C97.6345 387.997 97.3347 389.396 96.5853 389.234L76.335 384.979C75.9603 384.891 75.6156 385.274 75.5856 385.774C75.1959 394.608 74.986 402.823 74.986 410.11C74.986 414.719 75.076 419.165 75.2408 423.361C75.2341 423.517 75.2728 423.672 75.3524 423.808C75.432 423.943 75.5493 424.054 75.6905 424.126L97.0349 432.96C97.7095 433.239 97.5895 434.55 96.8851 434.623L76.6348 436.39C76.2601 436.39 75.9903 436.861 76.0353 437.347C76.9264 449.572 79.1423 461.668 82.6454 473.431C82.7803 473.843 83.1251 474.05 83.4548 473.902L95.8358 468.646C96.4803 468.381 96.975 469.397 96.5103 470.03L86.9323 483.398C86.847 483.557 86.8024 483.734 86.8024 483.914C86.8024 484.093 86.847 484.27 86.9323 484.429C95.1613 502.228 106.943 509.928 120.043 509.928C132.874 509.928 144.46 502.567 152.659 485.474C152.751 485.315 152.8 485.135 152.8 484.951C152.8 484.768 152.751 484.588 152.659 484.429L142.347 470.03C141.897 469.397 142.347 468.381 143.021 468.646L156.512 474.359C156.826 474.506 157.186 474.359 157.306 473.888C160.896 462.018 163.162 449.8 164.066 437.45C164.1 437.244 164.057 437.033 163.943 436.857C163.83 436.681 163.655 436.551 163.452 436.493L141.897 434.608C141.178 434.535 141.058 433.225 141.747 432.945L164.066 423.788C164.181 423.732 164.279 423.648 164.352 423.546C164.426 423.443 164.472 423.323 164.486 423.199L164.816 421.638C164.816 421.638 164.816 421.52 164.816 421.447C164.935 417.796 164.995 414.017 164.995 410.11C165.01 402.749 164.801 394.461 164.381 385.509Z" fill="white"/>
<path d="M121.752 445.93L120.373 369.02L144.445 349.425L120.193 359.098L119.743 333.966L119.549 334.364L119.698 330.683L119.039 294.54L138.974 276.476L119.429 287.989L118.994 291.816L118.2 247.031L117.75 255.85L115.651 322.792L114.737 321.011L99.1034 311.029L115.531 326.708L112.848 411.583L88.1464 403.957L112.564 420.446L110.735 478.731L101.442 476.906L110.45 487.962L109.446 519.748L108.217 586.249H124.255L121.872 452.908L141.313 448.492L121.752 445.93Z" fill="#263238"/>
<path opacity="0.5" d="M121.752 445.93L120.373 369.02L144.445 349.425L120.193 359.098L119.743 333.966L119.549 334.364L119.698 330.683L119.039 294.54L138.974 276.476L119.429 287.989L118.994 291.816L118.2 247.031L117.75 255.85L115.651 322.792L114.737 321.011L99.1034 311.029L115.531 326.708L112.848 411.583L88.1464 403.957L112.564 420.446L110.735 478.731L101.442 476.906L110.45 487.962L109.446 519.748L108.217 586.249H124.255L121.872 452.908L141.313 448.492L121.752 445.93Z" fill="white"/>
<path d="M680.5 414.704C680.5 414.277 680.185 413.953 679.855 414.027L661.523 417.884C660.879 418.016 660.624 416.824 661.224 416.5L679.69 406.194C679.802 406.111 679.889 406.001 679.945 405.874C680 405.748 680.021 405.61 680.005 405.473C679.241 392.399 678.056 378.045 676.513 363.411C676.513 362.999 676.168 362.719 675.853 362.793L659.635 366.886C659.035 367.033 658.72 366.017 659.215 365.575L674.864 351.604C674.955 351.512 675.025 351.4 675.066 351.278C675.108 351.155 675.121 351.025 675.104 350.897C674.264 343.83 673.335 336.764 672.346 329.8L671.071 322.836C670.997 322.395 670.637 322.159 670.322 322.336L660.879 327.444C660.324 327.754 659.845 326.826 660.279 326.267L669.677 313.959C669.811 313.765 669.864 313.528 669.827 313.296C667.939 301.842 665.87 290.948 663.622 281.143C663.517 280.672 663.112 280.48 662.797 280.731L650.656 290.639C650.132 291.066 649.562 290.256 649.907 289.608L660.609 269.998C660.718 269.789 660.744 269.548 660.684 269.321C659.068 263.073 657.065 256.927 654.688 250.918C654.671 250.846 654.638 250.779 654.591 250.722C654.544 250.665 654.484 250.619 654.416 250.588C654.348 250.556 654.274 250.541 654.199 250.542C654.124 250.543 654.051 250.561 653.984 250.594L645.545 255.452C645.11 255.703 644.646 255.173 644.796 254.584L647.434 244.131C647.434 243.939 647.674 243.174 647.883 242.497L648.573 239.802C646.609 237.432 644.601 236.137 642.577 236.137C640.554 236.137 638.245 237.609 636.162 240.288L639.31 254.584C639.445 255.173 638.995 255.703 638.56 255.452L630.961 251.036C630.894 250.999 630.82 250.979 630.744 250.975C630.668 250.972 630.593 250.986 630.523 251.016C630.454 251.046 630.392 251.091 630.343 251.148C630.294 251.205 630.259 251.272 630.241 251.345C627.803 257.624 625.746 264.039 624.081 270.557C623.998 270.771 623.998 271.007 624.081 271.22L634.078 289.549C634.438 290.197 633.854 291.021 633.344 290.58L622.057 281.496C621.742 281.246 621.338 281.496 621.233 281.908C618.984 291.846 616.901 302.888 615.012 314.474C614.99 314.591 614.991 314.711 615.017 314.828C615.043 314.944 615.092 315.054 615.162 315.151L623.706 326.326C624.126 326.885 623.706 327.798 623.091 327.503L614.383 322.792C614.068 322.616 613.693 322.792 613.633 323.322C612.224 332.641 610.95 342.226 609.826 351.795C609.804 351.922 609.812 352.052 609.851 352.175C609.891 352.298 609.959 352.41 610.051 352.502L624.77 365.634C625.265 366.076 624.935 367.106 624.351 366.945L609.137 363.117C608.837 363.028 608.537 363.323 608.492 363.735C606.993 378.457 605.734 392.944 604.985 406.106C604.967 406.242 604.989 406.381 605.047 406.506C605.105 406.63 605.198 406.737 605.314 406.813L622.762 416.5C623.376 416.824 623.106 417.972 622.462 417.884L605.194 414.306C604.88 414.306 604.58 414.557 604.55 414.984C604.22 422.551 604.04 429.559 604.04 435.771C604.04 439.732 604.115 443.515 604.25 447.152C604.247 447.287 604.282 447.42 604.351 447.537C604.419 447.654 604.519 447.75 604.64 447.814L622.882 455.293C623.466 455.529 623.361 456.662 622.747 456.766L605.494 458.238C605.18 458.238 604.955 458.635 604.985 459.048C605.748 469.492 607.642 479.826 610.636 489.876C610.647 489.951 610.675 490.022 610.717 490.086C610.76 490.149 610.816 490.202 610.882 490.241C610.948 490.281 611.021 490.305 611.098 490.313C611.175 490.321 611.252 490.313 611.325 490.288L621.907 485.798C622.462 485.562 622.882 486.431 622.492 486.99L614.308 498.415C614.219 498.541 614.165 498.687 614.151 498.839C614.138 498.992 614.166 499.145 614.233 499.284C621.263 514.492 631.335 521.073 642.532 521.073C653.504 521.073 663.397 514.742 670.412 500.182C670.487 500.043 670.526 499.889 670.526 499.733C670.526 499.576 670.487 499.422 670.412 499.284L661.598 486.99C661.209 486.431 661.598 485.518 662.168 485.798L673.68 490.686C673.949 490.804 674.249 490.686 674.369 490.274C677.43 480.129 679.364 469.689 680.14 459.136C680.172 458.961 680.136 458.78 680.039 458.63C679.942 458.48 679.79 458.371 679.615 458.326L661.329 456.721C660.714 456.721 660.624 455.544 661.209 455.249L680.275 447.417C680.372 447.367 680.456 447.296 680.521 447.209C680.586 447.122 680.63 447.022 680.649 446.916L680.919 445.591C680.919 445.591 680.919 445.488 680.919 445.429C681.009 442.308 681.069 439.084 681.069 435.727C681.024 429.441 680.844 422.359 680.5 414.704Z" fill="#FF725E"/>
<path opacity="0.4" d="M680.5 414.704C680.5 414.277 680.185 413.953 679.855 414.027L661.523 417.884C660.879 418.016 660.624 416.824 661.224 416.5L679.69 406.194C679.802 406.111 679.889 406.001 679.945 405.874C680 405.748 680.021 405.61 680.005 405.473C679.241 392.399 678.056 378.045 676.513 363.411C676.513 362.999 676.168 362.719 675.853 362.793L659.635 366.886C659.035 367.033 658.72 366.017 659.215 365.575L674.864 351.604C674.955 351.512 675.025 351.4 675.066 351.278C675.108 351.155 675.121 351.025 675.104 350.897C674.264 343.83 673.335 336.764 672.346 329.8L671.071 322.836C670.997 322.395 670.637 322.159 670.322 322.336L660.879 327.444C660.324 327.754 659.845 326.826 660.279 326.267L669.677 313.959C669.811 313.765 669.864 313.528 669.827 313.296C667.939 301.842 665.87 290.948 663.622 281.143C663.517 280.672 663.112 280.48 662.797 280.731L650.656 290.639C650.132 291.066 649.562 290.256 649.907 289.608L660.609 269.998C660.718 269.789 660.744 269.548 660.684 269.321C659.068 263.073 657.065 256.927 654.688 250.918C654.671 250.846 654.638 250.779 654.591 250.722C654.544 250.665 654.484 250.619 654.416 250.588C654.348 250.556 654.274 250.541 654.199 250.542C654.124 250.543 654.051 250.561 653.984 250.594L645.545 255.452C645.11 255.703 644.646 255.173 644.796 254.584L647.434 244.131C647.434 243.939 647.674 243.174 647.883 242.497L648.573 239.802C646.609 237.432 644.601 236.137 642.577 236.137C640.554 236.137 638.245 237.609 636.162 240.288L639.31 254.584C639.445 255.173 638.995 255.703 638.56 255.452L630.961 251.036C630.894 250.999 630.82 250.979 630.744 250.975C630.668 250.972 630.593 250.986 630.523 251.016C630.454 251.046 630.392 251.091 630.343 251.148C630.294 251.205 630.259 251.272 630.241 251.345C627.803 257.624 625.746 264.039 624.081 270.557C623.998 270.771 623.998 271.007 624.081 271.22L634.078 289.549C634.438 290.197 633.854 291.021 633.344 290.58L622.057 281.496C621.742 281.246 621.338 281.496 621.233 281.908C618.984 291.846 616.901 302.888 615.012 314.474C614.99 314.591 614.991 314.711 615.017 314.828C615.043 314.944 615.092 315.054 615.162 315.151L623.706 326.326C624.126 326.885 623.706 327.798 623.091 327.503L614.383 322.792C614.068 322.616 613.693 322.792 613.633 323.322C612.224 332.641 610.95 342.226 609.826 351.795C609.804 351.922 609.812 352.052 609.851 352.175C609.891 352.298 609.959 352.41 610.051 352.502L624.77 365.634C625.265 366.076 624.935 367.106 624.351 366.945L609.137 363.117C608.837 363.028 608.537 363.323 608.492 363.735C606.993 378.457 605.734 392.944 604.985 406.106C604.967 406.242 604.989 406.381 605.047 406.506C605.105 406.63 605.198 406.737 605.314 406.813L622.762 416.5C623.376 416.824 623.106 417.972 622.462 417.884L605.194 414.306C604.88 414.306 604.58 414.557 604.55 414.984C604.22 422.551 604.04 429.559 604.04 435.771C604.04 439.732 604.115 443.515 604.25 447.152C604.247 447.287 604.282 447.42 604.351 447.537C604.419 447.654 604.519 447.75 604.64 447.814L622.882 455.293C623.466 455.529 623.361 456.662 622.747 456.766L605.494 458.238C605.18 458.238 604.955 458.635 604.985 459.048C605.748 469.492 607.642 479.826 610.636 489.876C610.647 489.951 610.675 490.022 610.717 490.086C610.76 490.149 610.816 490.202 610.882 490.241C610.948 490.281 611.021 490.305 611.098 490.313C611.175 490.321 611.252 490.313 611.325 490.288L621.907 485.798C622.462 485.562 622.882 486.431 622.492 486.99L614.308 498.415C614.219 498.541 614.165 498.687 614.151 498.839C614.138 498.992 614.166 499.145 614.233 499.284C621.263 514.492 631.335 521.073 642.532 521.073C653.504 521.073 663.397 514.742 670.412 500.182C670.487 500.043 670.526 499.889 670.526 499.733C670.526 499.576 670.487 499.422 670.412 499.284L661.598 486.99C661.209 486.431 661.598 485.518 662.168 485.798L673.68 490.686C673.949 490.804 674.249 490.686 674.369 490.274C677.43 480.129 679.364 469.689 680.14 459.136C680.172 458.961 680.136 458.78 680.039 458.63C679.942 458.48 679.79 458.371 679.615 458.326L661.329 456.721C660.714 456.721 660.624 455.544 661.209 455.249L680.275 447.417C680.372 447.367 680.456 447.296 680.521 447.209C680.586 447.122 680.63 447.022 680.649 446.916L680.919 445.591C680.919 445.591 680.919 445.488 680.919 445.429C681.009 442.308 681.069 439.084 681.069 435.727C681.024 429.441 680.844 422.359 680.5 414.704Z" fill="white"/>
<path d="M644.061 466.335L642.877 400.6L663.457 383.861L642.727 392.134L642.352 370.64L642.173 370.993L642.292 367.843L641.738 336.955L658.78 321.511L642.068 331.361L641.693 334.629L641.018 296.351L640.644 303.903L638.845 361.1L638.065 359.583L624.695 351.044L638.74 364.456L636.447 436.979L615.342 430.457L636.207 444.561L634.648 494.366L626.704 492.806L634.393 502.258L633.539 529.406L632.49 586.249H646.205L644.166 472.298L660.774 468.529L644.061 466.335Z" fill="#263238"/>
<path opacity="0.5" d="M644.061 466.335L642.877 400.6L663.457 383.861L642.727 392.134L642.352 370.64L642.173 370.993L642.292 367.843L641.738 336.955L658.78 321.511L642.068 331.361L641.693 334.629L641.018 296.351L640.644 303.903L638.845 361.1L638.065 359.583L624.695 351.044L638.74 364.456L636.447 436.979L615.342 430.457L636.207 444.561L634.648 494.366L626.704 492.806L634.393 502.258L633.539 529.406L632.49 586.249H646.205L644.166 472.298L660.774 468.529L644.061 466.335Z" fill="white"/>
<path d="M1098.17 345.766C1098.17 345.162 1097.72 344.72 1097.27 344.809L1071.54 350.227C1070.62 350.418 1070.26 348.754 1071.1 348.283L1097.03 333.914C1097.19 333.8 1097.32 333.646 1097.4 333.468C1097.49 333.29 1097.52 333.093 1097.5 332.898C1096.42 314.54 1094.75 294.399 1092.58 273.847C1092.58 273.273 1092.1 272.875 1091.67 272.978L1068.9 278.72C1068.06 278.926 1067.61 277.498 1068.31 276.88L1090.27 257.27C1090.4 257.139 1090.5 256.981 1090.56 256.807C1090.61 256.634 1090.63 256.449 1090.6 256.269C1089.43 246.346 1088.14 236.423 1086.75 226.647L1084.95 216.886C1084.85 216.268 1084.34 215.929 1083.9 216.18L1070.65 223.349C1069.86 223.776 1069.15 222.481 1069.8 221.686L1082.99 204.431C1083.09 204.296 1083.16 204.143 1083.19 203.981C1083.23 203.819 1083.23 203.652 1083.2 203.489C1080.56 187.412 1077.65 172.116 1074.5 158.35C1074.35 157.702 1073.78 157.423 1073.35 157.776L1056.31 171.527C1055.59 172.116 1054.81 170.982 1055.27 170.054L1070.26 142.524C1070.42 142.234 1070.45 141.897 1070.37 141.581C1068.08 132.818 1065.25 124.199 1061.9 115.773C1061.7 115.302 1061.27 115.111 1060.91 115.332L1049.05 122.148C1048.44 122.501 1047.79 121.75 1047.99 120.926L1051.72 106.204C1051.72 105.939 1052.05 104.864 1052.34 103.922L1053.31 100.138C1050.57 96.8256 1047.75 95 1044.87 95C1041.99 95 1038.79 97.0611 1035.88 100.889L1040.3 120.955C1040.49 121.78 1039.85 122.531 1039.23 122.177L1028.58 116.038C1028.48 115.991 1028.38 115.965 1028.27 115.963C1028.16 115.961 1028.06 115.983 1027.96 116.027C1027.87 116.071 1027.78 116.136 1027.71 116.217C1027.65 116.298 1027.6 116.393 1027.57 116.495C1024.14 125.301 1021.25 134.303 1018.92 143.451C1018.84 143.766 1018.87 144.1 1019.01 144.393L1033.06 170.113C1033.55 171.026 1032.74 172.16 1032.03 171.586L1016.18 158.836C1015.75 158.483 1015.18 158.762 1015.03 159.41C1011.86 173.367 1008.94 188.855 1006.29 205.123C1006.24 205.454 1006.32 205.792 1006.51 206.065L1018.5 221.745C1019.1 222.54 1018.5 223.835 1017.67 223.408L1005.34 216.739C1004.89 216.489 1004.37 216.842 1004.28 217.475C1002.3 230.563 1000.52 243.975 998.929 257.461C998.905 257.639 998.922 257.821 998.979 257.991C999.036 258.162 999.132 258.318 999.259 258.447L1019.91 276.88C1020.6 277.498 1020.15 278.926 1019.33 278.72L998.045 273.302C997.595 273.185 997.176 273.582 997.116 274.156C994.927 294.885 993.263 315.173 992.199 333.634C992.175 333.829 992.205 334.027 992.287 334.206C992.369 334.385 992.499 334.539 992.664 334.65L1017.17 348.239C1018.01 348.71 1017.65 350.374 1016.74 350.182L992.454 345.074C992.004 344.971 991.585 345.427 991.555 346.031C991.09 356.645 990.835 366.48 990.835 375.225C990.835 380.761 990.935 386.08 991.135 391.184C991.128 391.373 991.175 391.559 991.271 391.723C991.366 391.887 991.506 392.021 991.675 392.112L1017.34 402.668C1018.16 403.006 1018.01 404.581 1017.16 404.655L992.949 406.76C992.702 406.826 992.489 406.981 992.353 407.194C992.217 407.406 992.168 407.662 992.214 407.909C993.285 422.573 995.948 437.084 1000.16 451.192C1000.31 451.693 1000.73 451.928 1001.12 451.767L1015.99 445.465C1016.75 445.141 1017.34 446.363 1016.8 447.129L1005.24 463.221C1005.12 463.402 1005.05 463.611 1005.03 463.827C1005.01 464.044 1005.06 464.261 1005.15 464.457C1015.01 485.805 1029.13 495.035 1044.87 495.035C1060.26 495.035 1074.16 486.202 1084.01 465.709C1084.1 465.509 1084.14 465.29 1084.12 465.072C1084.1 464.854 1084.04 464.643 1083.92 464.457L1071.54 447.188C1071 446.422 1071.54 445.2 1072.35 445.524L1088.5 452.385C1088.61 452.418 1088.71 452.429 1088.82 452.418C1088.93 452.406 1089.03 452.372 1089.12 452.317C1089.21 452.262 1089.29 452.189 1089.35 452.101C1089.41 452.014 1089.45 451.915 1089.46 451.811C1093.77 437.571 1096.49 422.915 1097.57 408.1C1097.62 407.853 1097.57 407.598 1097.43 407.385C1097.3 407.172 1097.08 407.018 1096.84 406.952L1071.18 404.714C1070.32 404.64 1070.17 403.065 1071 402.726L1097.77 391.729C1097.91 391.662 1098.02 391.562 1098.11 391.439C1098.2 391.315 1098.26 391.172 1098.28 391.022L1098.67 389.152C1098.67 389.152 1098.67 389.005 1098.67 388.932C1098.8 384.515 1098.88 380.025 1098.88 375.328C1098.91 366.451 1098.65 356.498 1098.17 345.766Z" fill="#FF725E"/>
<path opacity="0.4" d="M1098.17 345.766C1098.17 345.162 1097.72 344.72 1097.27 344.809L1071.54 350.227C1070.62 350.418 1070.26 348.754 1071.1 348.283L1097.03 333.914C1097.19 333.8 1097.32 333.646 1097.4 333.468C1097.49 333.29 1097.52 333.093 1097.5 332.898C1096.42 314.54 1094.75 294.399 1092.58 273.847C1092.58 273.273 1092.1 272.875 1091.67 272.978L1068.9 278.72C1068.06 278.926 1067.61 277.498 1068.31 276.88L1090.27 257.27C1090.4 257.139 1090.5 256.981 1090.56 256.807C1090.61 256.634 1090.63 256.449 1090.6 256.269C1089.43 246.346 1088.14 236.423 1086.75 226.647L1084.95 216.886C1084.85 216.268 1084.34 215.929 1083.9 216.18L1070.65 223.349C1069.86 223.776 1069.15 222.481 1069.8 221.686L1082.99 204.431C1083.09 204.296 1083.16 204.143 1083.19 203.981C1083.23 203.819 1083.23 203.652 1083.2 203.489C1080.56 187.412 1077.65 172.116 1074.5 158.35C1074.35 157.702 1073.78 157.423 1073.35 157.776L1056.31 171.527C1055.59 172.116 1054.81 170.982 1055.27 170.054L1070.26 142.524C1070.42 142.234 1070.45 141.897 1070.37 141.581C1068.08 132.818 1065.25 124.199 1061.9 115.773C1061.7 115.302 1061.27 115.111 1060.91 115.332L1049.05 122.148C1048.44 122.501 1047.79 121.75 1047.99 120.926L1051.72 106.204C1051.72 105.939 1052.05 104.864 1052.34 103.922L1053.31 100.138C1050.57 96.8256 1047.75 95 1044.87 95C1041.99 95 1038.79 97.0611 1035.88 100.889L1040.3 120.955C1040.49 121.78 1039.85 122.531 1039.23 122.177L1028.58 116.038C1028.48 115.991 1028.38 115.965 1028.27 115.963C1028.16 115.961 1028.06 115.983 1027.96 116.027C1027.87 116.071 1027.78 116.136 1027.71 116.217C1027.65 116.298 1027.6 116.393 1027.57 116.495C1024.14 125.301 1021.25 134.303 1018.92 143.451C1018.84 143.766 1018.87 144.1 1019.01 144.393L1033.06 170.113C1033.55 171.026 1032.74 172.16 1032.03 171.586L1016.18 158.836C1015.75 158.483 1015.18 158.762 1015.03 159.41C1011.86 173.367 1008.94 188.855 1006.29 205.123C1006.24 205.454 1006.32 205.792 1006.51 206.065L1018.5 221.745C1019.1 222.54 1018.5 223.835 1017.67 223.408L1005.34 216.739C1004.89 216.489 1004.37 216.842 1004.28 217.475C1002.3 230.563 1000.52 243.975 998.929 257.461C998.905 257.639 998.922 257.821 998.979 257.991C999.036 258.162 999.132 258.318 999.259 258.447L1019.91 276.88C1020.6 277.498 1020.15 278.926 1019.33 278.72L998.045 273.302C997.595 273.185 997.176 273.582 997.116 274.156C994.927 294.885 993.263 315.173 992.199 333.634C992.175 333.829 992.205 334.027 992.287 334.206C992.369 334.385 992.499 334.539 992.664 334.65L1017.17 348.239C1018.01 348.71 1017.65 350.374 1016.74 350.182L992.454 345.074C992.004 344.971 991.585 345.427 991.555 346.031C991.09 356.645 990.835 366.48 990.835 375.225C990.835 380.761 990.935 386.08 991.135 391.184C991.128 391.373 991.175 391.559 991.271 391.723C991.366 391.887 991.506 392.021 991.675 392.112L1017.34 402.668C1018.16 403.006 1018.01 404.581 1017.16 404.655L992.949 406.76C992.702 406.826 992.489 406.981 992.353 407.194C992.217 407.406 992.168 407.662 992.214 407.909C993.285 422.573 995.948 437.084 1000.16 451.192C1000.31 451.693 1000.73 451.928 1001.12 451.767L1015.99 445.465C1016.75 445.141 1017.34 446.363 1016.8 447.129L1005.24 463.221C1005.12 463.402 1005.05 463.611 1005.03 463.827C1005.01 464.044 1005.06 464.261 1005.15 464.457C1015.01 485.805 1029.13 495.035 1044.87 495.035C1060.26 495.035 1074.16 486.202 1084.01 465.709C1084.1 465.509 1084.14 465.29 1084.12 465.072C1084.1 464.854 1084.04 464.643 1083.92 464.457L1071.54 447.188C1071 446.422 1071.54 445.2 1072.35 445.524L1088.5 452.385C1088.61 452.418 1088.71 452.429 1088.82 452.418C1088.93 452.406 1089.03 452.372 1089.12 452.317C1089.21 452.262 1089.29 452.189 1089.35 452.101C1089.41 452.014 1089.45 451.915 1089.46 451.811C1093.77 437.571 1096.49 422.915 1097.57 408.1C1097.62 407.853 1097.57 407.598 1097.43 407.385C1097.3 407.172 1097.08 407.018 1096.84 406.952L1071.18 404.714C1070.32 404.64 1070.17 403.065 1071 402.726L1097.77 391.729C1097.91 391.662 1098.02 391.562 1098.11 391.439C1098.2 391.315 1098.26 391.172 1098.28 391.022L1098.67 389.152C1098.67 389.152 1098.67 389.005 1098.67 388.932C1098.8 384.515 1098.88 380.025 1098.88 375.328C1098.91 366.451 1098.65 356.498 1098.17 345.766Z" fill="white"/>
<path d="M1047.01 418.244L1045.37 325.979L1074.23 302.467L1045.14 314.083L1044.6 283.917L1044.36 284.403L1044.54 279.986L1043.76 236.629L1067.67 214.943L1044.23 228.767L1043.7 233.361L1042.74 179.624L1042.22 190.209L1039.68 270.52L1038.59 268.385L1019.84 256.401L1039.53 275.216L1036.33 377.036L1006.71 367.893L1036 387.665L1033.79 457.597L1022.64 455.418L1033.45 468.668L1032.23 506.784L1030.77 586.579H1050.03L1047.16 426.606L1070.49 421.321L1047.01 418.244Z" fill="#263238"/>
<path opacity="0.5" d="M1047.01 418.244L1045.37 325.979L1074.23 302.467L1045.14 314.083L1044.6 283.917L1044.36 284.403L1044.54 279.986L1043.76 236.629L1067.67 214.943L1044.23 228.767L1043.7 233.361L1042.74 179.624L1042.22 190.209L1039.68 270.52L1038.59 268.385L1019.84 256.401L1039.53 275.216L1036.33 377.036L1006.71 367.893L1036 387.665L1033.79 457.597L1022.64 455.418L1033.45 468.668L1032.23 506.784L1030.77 586.579H1050.03L1047.16 426.606L1070.49 421.321L1047.01 418.244Z" fill="white"/>
<path d="M936.395 385.84C936.395 385.339 936.02 384.971 935.645 385.045L914.211 389.609C913.447 389.771 913.147 388.372 913.851 387.989L935.451 376.005C935.589 375.915 935.701 375.789 935.772 375.641C935.843 375.493 935.872 375.329 935.855 375.166C934.956 359.855 933.562 343.071 931.748 325.949C931.748 325.464 931.358 325.125 930.984 325.228L912.008 329.998C911.318 330.175 910.928 328.982 911.513 328.526L929.83 312.184C929.938 312.074 930.019 311.941 930.068 311.796C930.118 311.651 930.133 311.497 930.114 311.345C929.125 303.086 928.046 294.812 926.892 286.655L925.393 278.514C925.303 278.013 924.883 277.734 924.508 277.925L913.462 283.917C912.817 284.27 912.262 283.181 912.757 282.518L923.759 268.135C923.918 267.906 923.982 267.628 923.939 267.354C921.736 253.942 919.307 241.193 916.684 229.724C916.564 229.194 916.085 228.959 915.725 229.253L901.485 240.707C900.886 241.193 900.211 240.251 900.616 239.5L913.147 216.548C913.269 216.306 913.296 216.028 913.222 215.767C911.32 208.449 908.967 201.252 906.177 194.214C906.012 193.831 905.652 193.669 905.352 193.846L895.475 199.543C894.965 199.838 894.425 199.205 894.59 198.513L897.693 186.279C897.693 186.058 897.963 185.16 898.203 184.379L899.012 181.214C896.719 178.446 894.38 176.93 891.982 176.93C889.584 176.93 886.916 178.652 884.488 181.788L888.175 198.513C888.34 199.205 887.8 199.838 887.291 199.543L878.402 194.42C878.087 194.243 877.728 194.42 877.563 194.803C874.709 202.145 872.302 209.647 870.353 217.269C870.314 217.398 870.303 217.534 870.318 217.668C870.334 217.802 870.376 217.932 870.443 218.049L882.119 239.441C882.539 240.192 881.865 241.134 881.265 240.648L868.06 230.019C867.685 229.724 867.22 230.019 867.085 230.504C864.462 242.135 862.019 255.047 859.816 268.606C859.788 268.741 859.79 268.88 859.821 269.015C859.852 269.149 859.912 269.276 859.996 269.386L869.978 282.46C870.488 283.122 869.978 284.212 869.274 283.858L859.081 278.337C858.706 278.131 858.272 278.426 858.197 278.956C856.548 289.865 855.064 301.039 853.7 312.272C853.682 312.413 853.696 312.555 853.74 312.69C853.784 312.825 853.857 312.949 853.955 313.053L871.162 328.408C871.747 328.923 871.372 330.116 870.683 329.88L852.891 325.464C852.516 325.375 852.171 325.699 852.126 326.185C850.298 343.454 848.904 360.37 848.019 375.755C848 375.919 848.026 376.084 848.094 376.235C848.163 376.385 848.272 376.514 848.409 376.609L868.944 387.945C869.648 388.328 869.349 389.727 868.599 389.565L848.349 385.31C847.974 385.222 847.63 385.604 847.6 386.105C847.21 394.938 847 403.153 847 410.441C847 415.049 847.09 419.495 847.255 423.691C847.248 423.847 847.287 424.002 847.366 424.138C847.446 424.274 847.563 424.384 847.704 424.457L869.049 433.29C869.723 433.57 869.604 434.88 868.899 434.954L848.649 436.72C848.274 436.72 848.004 437.191 848.049 437.677C848.94 449.902 851.156 461.999 854.659 473.762C854.794 474.174 855.139 474.38 855.469 474.233L867.85 468.977C868.494 468.712 868.989 469.728 868.524 470.361L858.946 483.729C858.861 483.888 858.816 484.064 858.816 484.244C858.816 484.424 858.861 484.6 858.946 484.759C867.175 502.559 878.957 510.258 892.057 510.258C904.888 510.258 916.474 502.897 924.673 485.805C924.765 485.645 924.814 485.465 924.814 485.282C924.814 485.099 924.765 484.919 924.673 484.759L914.361 470.361C913.911 469.728 914.361 468.712 915.035 468.977L928.526 474.689C928.84 474.836 929.2 474.689 929.32 474.218C932.91 462.348 935.176 450.131 936.08 437.78C936.114 437.575 936.07 437.364 935.957 437.188C935.844 437.011 935.669 436.882 935.465 436.823L913.911 434.939C913.192 434.865 913.072 433.555 913.761 433.275L936.08 424.118C936.195 424.062 936.293 423.979 936.366 423.876C936.44 423.773 936.485 423.654 936.5 423.529L936.829 421.969C936.829 421.969 936.829 421.851 936.829 421.777C936.949 418.126 937.009 414.347 937.009 410.441C937.024 403.08 936.815 394.791 936.395 385.84Z" fill="#FF725E"/>
<path opacity="0.4" d="M936.395 385.84C936.395 385.339 936.02 384.971 935.645 385.045L914.211 389.609C913.447 389.771 913.147 388.372 913.851 387.989L935.451 376.005C935.589 375.915 935.701 375.789 935.772 375.641C935.843 375.493 935.872 375.329 935.855 375.166C934.956 359.855 933.562 343.071 931.748 325.949C931.748 325.464 931.358 325.125 930.984 325.228L912.008 329.998C911.318 330.175 910.928 328.982 911.513 328.526L929.83 312.184C929.938 312.074 930.019 311.941 930.068 311.796C930.118 311.651 930.133 311.497 930.114 311.345C929.125 303.086 928.046 294.812 926.892 286.655L925.393 278.514C925.303 278.013 924.883 277.734 924.508 277.925L913.462 283.917C912.817 284.27 912.262 283.181 912.757 282.518L923.759 268.135C923.918 267.906 923.982 267.628 923.939 267.354C921.736 253.942 919.307 241.193 916.684 229.724C916.564 229.194 916.085 228.959 915.725 229.253L901.485 240.707C900.886 241.193 900.211 240.251 900.616 239.5L913.147 216.548C913.269 216.306 913.296 216.028 913.222 215.767C911.32 208.449 908.967 201.252 906.177 194.214C906.012 193.831 905.652 193.669 905.352 193.846L895.475 199.543C894.965 199.838 894.425 199.205 894.59 198.513L897.693 186.279C897.693 186.058 897.963 185.16 898.203 184.379L899.012 181.214C896.719 178.446 894.38 176.93 891.982 176.93C889.584 176.93 886.916 178.652 884.488 181.788L888.175 198.513C888.34 199.205 887.8 199.838 887.291 199.543L878.402 194.42C878.087 194.243 877.728 194.42 877.563 194.803C874.709 202.145 872.302 209.647 870.353 217.269C870.314 217.398 870.303 217.534 870.318 217.668C870.334 217.802 870.376 217.932 870.443 218.049L882.119 239.441C882.539 240.192 881.865 241.134 881.265 240.648L868.06 230.019C867.685 229.724 867.22 230.019 867.085 230.504C864.462 242.135 862.019 255.047 859.816 268.606C859.788 268.741 859.79 268.88 859.821 269.015C859.852 269.149 859.912 269.276 859.996 269.386L869.978 282.46C870.488 283.122 869.978 284.212 869.274 283.858L859.081 278.337C858.706 278.131 858.272 278.426 858.197 278.956C856.548 289.865 855.064 301.039 853.7 312.272C853.682 312.413 853.696 312.555 853.74 312.69C853.784 312.825 853.857 312.949 853.955 313.053L871.162 328.408C871.747 328.923 871.372 330.116 870.683 329.88L852.891 325.464C852.516 325.375 852.171 325.699 852.126 326.185C850.298 343.454 848.904 360.37 848.019 375.755C848 375.919 848.026 376.084 848.094 376.235C848.163 376.385 848.272 376.514 848.409 376.609L868.944 387.945C869.648 388.328 869.349 389.727 868.599 389.565L848.349 385.31C847.974 385.222 847.63 385.604 847.6 386.105C847.21 394.938 847 403.153 847 410.441C847 415.049 847.09 419.495 847.255 423.691C847.248 423.847 847.287 424.002 847.366 424.138C847.446 424.274 847.563 424.384 847.704 424.457L869.049 433.29C869.723 433.57 869.604 434.88 868.899 434.954L848.649 436.72C848.274 436.72 848.004 437.191 848.049 437.677C848.94 449.902 851.156 461.999 854.659 473.762C854.794 474.174 855.139 474.38 855.469 474.233L867.85 468.977C868.494 468.712 868.989 469.728 868.524 470.361L858.946 483.729C858.861 483.888 858.816 484.064 858.816 484.244C858.816 484.424 858.861 484.6 858.946 484.759C867.175 502.559 878.957 510.258 892.057 510.258C904.888 510.258 916.474 502.897 924.673 485.805C924.765 485.645 924.814 485.465 924.814 485.282C924.814 485.099 924.765 484.919 924.673 484.759L914.361 470.361C913.911 469.728 914.361 468.712 915.035 468.977L928.526 474.689C928.84 474.836 929.2 474.689 929.32 474.218C932.91 462.348 935.176 450.131 936.08 437.78C936.114 437.575 936.07 437.364 935.957 437.188C935.844 437.011 935.669 436.882 935.465 436.823L913.911 434.939C913.192 434.865 913.072 433.555 913.761 433.275L936.08 424.118C936.195 424.062 936.293 423.979 936.366 423.876C936.44 423.773 936.485 423.654 936.5 423.529L936.829 421.969C936.829 421.969 936.829 421.851 936.829 421.777C936.949 418.126 937.009 414.347 937.009 410.441C937.024 403.08 936.815 394.791 936.395 385.84Z" fill="white"/>
<path d="M893.766 446.26L892.387 369.351L916.459 349.755L892.207 359.428L891.757 334.297L891.563 334.694L891.712 331.014L891.053 294.871L910.988 276.806L891.443 288.319L891.008 292.147L890.213 247.362L889.764 256.18L887.665 323.123L886.751 321.341L871.117 311.36L887.545 327.039L884.862 411.913L860.16 404.287L884.578 420.776L882.749 479.062L873.456 477.236L882.464 488.293L881.46 520.078L880.231 586.579H896.269L893.886 453.239L913.327 448.822L893.766 446.26Z" fill="#263238"/>
<path opacity="0.5" d="M893.766 446.26L892.387 369.351L916.459 349.755L892.207 359.428L891.757 334.297L891.563 334.694L891.712 331.014L891.053 294.871L910.988 276.806L891.443 288.319L891.008 292.147L890.213 247.362L889.764 256.18L887.665 323.123L886.751 321.341L871.117 311.36L887.545 327.039L884.862 411.913L860.16 404.287L884.578 420.776L882.749 479.062L873.456 477.236L882.464 488.293L881.46 520.078L880.231 586.579H896.269L893.886 453.239L913.327 448.822L893.766 446.26Z" fill="white"/>
<path d="M713.206 586.249H728" stroke="#263238" stroke-linecap="round" stroke-linejoin="round"/>
<path d="M74.4464 586.249H700.69" stroke="#263238" stroke-linecap="round" stroke-linejoin="round"/>
<path d="M1 586.249H60.9563" stroke="#263238" stroke-linecap="round" stroke-linejoin="round"/>
<path d="M1289.87 587H1302" stroke="#263238" stroke-linecap="round" stroke-linejoin="round"/>
<path d="M766.212 587L1279.61 587" stroke="#263238" stroke-linecap="round" stroke-linejoin="round"/>
<path d="M706 587H755.153" stroke="#263238" stroke-linecap="round" stroke-linejoin="round"/>
</svg>
