<svg width="586" height="185" viewBox="0 0 586 185" fill="none" xmlns="http://www.w3.org/2000/svg">
<path d="M431.951 115.083H419.675L419.495 115.348C418.445 115.179 417.382 115.09 416.317 115.083C401.328 115.083 389.217 130.424 389.217 149.342C389.217 168.261 401.358 183.601 416.317 183.601C417.397 183.601 426.285 183.498 427.334 183.351L419.675 183.601H431.951C446.94 183.601 459.051 168.261 459.051 149.342C459.051 130.424 446.925 115.083 431.951 115.083Z" fill="#263238" stroke="#263238" stroke-linecap="round" stroke-linejoin="round"/>
<path d="M180.449 115.083H168.158L167.993 115.348C166.943 115.179 165.88 115.09 164.816 115.083C149.827 115.083 137.701 130.424 137.701 149.342C137.701 168.261 149.842 183.601 164.816 183.601C165.88 183.592 166.942 183.509 167.993 183.351L168.158 183.601H180.449C195.438 183.601 207.55 168.261 207.55 149.342C207.55 130.424 195.408 115.083 180.449 115.083Z" fill="#263238" stroke="#263238" stroke-linecap="round" stroke-linejoin="round"/>
<path d="M548.791 116.099H542.9L537.624 79.7498C537.315 77.6187 536.237 75.6675 534.586 74.2515C532.936 72.8355 530.822 72.0491 528.631 72.0353H495.49L441.859 16.0904C438.989 13.096 435.526 10.7101 431.683 9.07957C427.839 7.44902 423.697 6.60833 419.51 6.60919H277.414C274.348 6.61067 271.313 7.22042 268.493 8.40186C265.672 9.5833 263.124 11.3121 261.001 13.4845L16.8436 114.715V157.41H382.907L474.775 156.777L542.9 152.36V152.051H548.506C549.098 152.051 549.666 151.82 550.085 151.409C550.504 150.997 550.739 150.439 550.739 149.858V118.013C550.739 117.506 550.534 117.019 550.169 116.66C549.803 116.301 549.308 116.099 548.791 116.099V116.099Z" fill="#FF725E" stroke="#263238" stroke-linecap="round" stroke-linejoin="round"/>
<path d="M453.73 14.2059H476.783" stroke="#263238" stroke-linecap="round" stroke-linejoin="round"/>
<path d="M467.565 33.8308H560.512" stroke="#263238" stroke-linecap="round" stroke-linejoin="round"/>
<path d="M545.913 88.1562H568.187" stroke="#263238" stroke-linecap="round" stroke-linejoin="round"/>
<path d="M556.675 149.269H585.049" stroke="#263238" stroke-linecap="round" stroke-linejoin="round"/>
<path d="M444.797 150.947V157.086L474.775 156.88L542.9 152.463V152.154H548.506C548.922 152.15 549.329 152.032 549.681 151.813C550.033 151.595 550.316 151.285 550.5 150.918L444.797 150.947Z" fill="#263238" stroke="#263238" stroke-linecap="round" stroke-linejoin="round"/>
<path d="M474.775 156.88C475.07 156.871 475.361 156.806 475.63 156.687C475.9 156.568 476.142 156.398 476.345 156.187C476.547 155.975 476.706 155.727 476.81 155.456C476.915 155.184 476.965 154.896 476.956 154.606C476.947 154.316 476.88 154.03 476.759 153.766C476.638 153.501 476.465 153.262 476.249 153.063C476.034 152.864 475.782 152.709 475.505 152.606C475.229 152.503 474.935 152.455 474.64 152.463H440.165L312.758 6.6239H277.414C274.348 6.62538 271.313 7.23513 268.493 8.41657C265.673 9.59801 263.124 11.3268 261.001 13.4993L16.8436 114.715V157.41H382.907L474.775 156.88Z" fill="#263238" stroke="#263238" stroke-linecap="round" stroke-linejoin="round"/>
<path d="M73.8921 115.083H61.601L53.5519 126.699C49.1281 133.455 46.7759 141.317 46.7759 149.35C46.7759 157.382 49.1281 165.245 53.5519 172L61.601 183.601H73.8921C88.8812 183.601 100.992 168.261 100.992 149.342C100.992 130.424 88.8662 115.083 73.8921 115.083Z" fill="#263238" stroke="#263238" stroke-linecap="round" stroke-linejoin="round"/>
<path d="M58.2584 183.601C73.2255 183.601 85.3587 168.263 85.3587 149.342C85.3587 130.422 73.2255 115.083 58.2584 115.083C43.2914 115.083 31.1582 130.422 31.1582 149.342C31.1582 168.263 43.2914 183.601 58.2584 183.601Z" fill="#636363" stroke="#263238" stroke-linecap="round" stroke-linejoin="round"/>
<path d="M58.2585 176.667C70.204 176.667 79.8877 164.433 79.8877 149.342C79.8877 134.251 70.204 122.018 58.2585 122.018C46.313 122.018 36.6293 134.251 36.6293 149.342C36.6293 164.433 46.313 176.667 58.2585 176.667Z" fill="white" stroke="#263238" stroke-linecap="round" stroke-linejoin="round"/>
<path d="M62.8301 149.342C62.8301 152.537 60.7766 155.128 58.3334 155.128C55.8902 155.128 53.8367 152.537 53.8367 149.342C53.8367 146.148 55.8902 143.571 58.3334 143.571C60.7766 143.571 62.8301 146.162 62.8301 149.342Z" fill="white" stroke="#263238" stroke-linecap="round" stroke-linejoin="round"/>
<path d="M347.473 115.083H335.197L327.147 126.699C322.724 133.455 320.371 141.317 320.371 149.35C320.371 157.382 322.724 165.245 327.147 172L335.197 183.601H347.473C362.462 183.601 374.588 168.261 374.588 149.342C374.588 130.424 362.447 115.083 347.473 115.083Z" fill="#263238" stroke="#263238" stroke-linecap="round" stroke-linejoin="round"/>
<path d="M331.854 183.601C346.821 183.601 358.954 168.263 358.954 149.342C358.954 130.422 346.821 115.083 331.854 115.083C316.887 115.083 304.754 130.422 304.754 149.342C304.754 168.263 316.887 183.601 331.854 183.601Z" fill="#636363" stroke="#263238" stroke-linecap="round" stroke-linejoin="round"/>
<path d="M331.854 176.667C343.8 176.667 353.483 164.433 353.483 149.342C353.483 134.251 343.8 122.018 331.854 122.018C319.909 122.018 310.225 134.251 310.225 149.342C310.225 164.433 319.909 176.667 331.854 176.667Z" fill="white" stroke="#263238" stroke-linecap="round" stroke-linejoin="round"/>
<path d="M336.411 149.342C336.411 152.537 334.372 155.128 331.914 155.128C329.456 155.128 327.342 152.537 327.342 149.342C327.342 146.148 329.381 143.571 331.914 143.571C334.447 143.571 336.411 146.162 336.411 149.342Z" fill="white" stroke="#263238" stroke-linecap="round" stroke-linejoin="round"/>
<path d="M441.919 16.0757C441.484 15.6193 441.004 15.2071 440.54 14.7654H329.801V68.5167H492.237L441.919 16.0757Z" fill="#263238" stroke="#263238" stroke-linecap="round" stroke-linejoin="round"/>
<path d="M454.644 116.099H448.184L441.784 72.0206H400.834L347.218 16.0757C344.344 13.0823 340.878 10.6972 337.033 9.06679C333.187 7.4364 329.043 6.59508 324.854 6.59448H194.359C191.293 6.59765 188.26 7.20815 185.439 8.38949C182.619 9.57082 180.071 11.2987 177.946 13.4698L94.607 68.2075L17.4882 100.95L5.4969 116.865C2.55715 120.789 0.980588 125.538 1.00018 130.409V157.513H25.1626V148.488C25.1626 126.405 41.5306 108.488 61.6909 108.488C79.6778 108.488 90.8447 122.813 93.6477 142.246L95.851 157.513H299.133V148.488C299.133 126.405 308.366 108.488 333.173 108.488C355.267 108.488 363.151 122.813 366.614 142.246L369.207 156.88L448.244 152.463V152.154H454.704L454.644 116.099Z" fill="#FF725E" stroke="#263238" stroke-linecap="round" stroke-linejoin="round"/>
<path d="M232.881 79.8676H218.402V85.5651H232.881V79.8676Z" fill="#263238" stroke="#263238" stroke-linecap="round" stroke-linejoin="round"/>
<path d="M178.651 21.5966L107.093 68.2664H240.84V15.4573H193.475C190.712 15.4571 187.977 16.0002 185.431 17.0546C182.885 18.1089 180.579 19.6533 178.651 21.5966V21.5966Z" fill="#263238" stroke="#263238" stroke-linecap="round" stroke-linejoin="round"/>
<path d="M164.561 68.0602C164.417 67.3374 164.342 66.6031 164.336 65.8666C164.442 63.033 165.662 60.3501 167.741 58.3822C169.819 56.4143 172.594 55.3147 175.48 55.3147C178.367 55.3147 181.142 56.4143 183.22 58.3822C185.299 60.3501 186.519 63.033 186.625 65.8666C186.627 66.6035 186.551 67.3385 186.4 68.0602H192.591C192.691 67.333 192.746 66.6005 192.755 65.8666C192.496 61.5489 190.567 57.4917 187.363 54.5248C184.159 51.5578 179.921 49.9054 175.518 49.9054C171.114 49.9054 166.877 51.5578 163.673 54.5248C160.469 57.4917 158.54 61.5489 158.281 65.8666C158.285 66.6001 158.335 67.3327 158.43 68.0602H164.561Z" fill="#6E6E6E" stroke="#263238" stroke-linecap="round" stroke-linejoin="round"/>
<path d="M210.023 32.7855L205.002 39.3517L207.789 40.9859L211.687 52.4693L219.496 50.8351L220.051 55.2076L231.742 50.8351L226.736 43.7242L220.051 43.1795L210.023 32.7855Z" fill="white" stroke="#263238" stroke-linecap="round" stroke-linejoin="round"/>
<path d="M215.029 19.0938L212.196 22.9363C212.196 22.9363 189.923 32.2261 196.608 33.875C203.293 35.5239 223.348 34.9644 227.8 34.9644C232.252 34.9644 240.616 35.5092 240.616 35.5092L231.622 27.3088L220.485 25.1152L215.029 19.0938Z" fill="white" stroke="#263238" stroke-linecap="round" stroke-linejoin="round"/>
<path d="M211.132 68.34L206.201 74.3614C206.201 74.3614 188.364 65.0569 184.466 64.5122C180.569 63.9674 175.053 68.5755 175.053 68.5755C178.092 68.2925 181.149 68.2383 184.197 68.4136C189.293 68.5755 184.541 71.52 206.68 90.2321C208.374 91.7043 210.847 90.8357 212.241 89.1279C213.635 87.4201 222.839 72.7125 222.839 72.7125L211.132 68.34Z" fill="white" stroke="#263238" stroke-linecap="round" stroke-linejoin="round"/>
<path d="M222.823 51.9245L235.055 46.9926L237.678 51.0412L227.185 55.826L222.823 51.9245Z" fill="white" stroke="#263238" stroke-linecap="round" stroke-linejoin="round"/>
<path d="M231.787 61.0672C231.955 59.9068 231.829 58.7236 231.422 57.6221C231.014 56.5206 230.336 55.5347 229.449 54.7513C227.515 53.0435 224.952 51.3357 222.838 51.9246C218.926 53.0288 205.226 74.4351 205.226 74.4351L223.693 86.3749L231.787 61.0672Z" fill="white" stroke="#263238" stroke-linecap="round" stroke-linejoin="round"/>
<path d="M178.756 47.3165L172.415 49.7015L177.542 51.1737L179.235 54.766L176.073 55.7229C176.073 55.7229 178.516 58.1079 179.49 58.1079C180.883 57.9525 182.265 57.7116 183.627 57.3865L194.344 68.3989H208.074L187.464 54.3537L182.218 48.2734L178.756 47.3165Z" fill="white" stroke="#263238" stroke-linecap="round" stroke-linejoin="round"/>
<path d="M342.751 24.0552L373.179 54.6188C374.187 55.6412 374.905 56.9051 375.262 58.2847C375.563 59.4685 375.585 60.7039 375.327 61.8974C375.069 63.0908 374.538 64.2109 373.774 65.1728C373.009 66.1347 372.032 66.9131 370.917 67.4491C369.801 67.9851 368.575 68.2646 367.333 68.2664H249.804V15.4573H321.946C325.822 15.4594 329.658 16.221 333.231 17.6973C336.803 19.1736 340.04 21.3351 342.751 24.0552V24.0552Z" fill="#263238" stroke="#263238" stroke-linecap="round" stroke-linejoin="round"/>
<path d="M314.242 15.4573H302.43L260.011 68.2664H271.823L314.242 15.4573Z" fill="white" stroke="#263238" stroke-linecap="round" stroke-linejoin="round"/>
<path d="M249.804 19.1968V61.3616L286.677 15.4573H252.802L249.804 19.1968Z" fill="white" stroke="#263238" stroke-linecap="round" stroke-linejoin="round"/>
<path d="M441.784 72.0206H528.571C530.762 72.0344 532.876 72.8209 534.526 74.2368C536.177 75.6528 537.255 77.604 537.564 79.7351L542.84 116.085H448.184L441.784 72.0206Z" fill="#FF725E" stroke="#263238" stroke-linecap="round" stroke-linejoin="round"/>
<path d="M524.164 91.8957H483.004V108.502H524.164V91.8957Z" fill="white" stroke="#263238" stroke-linecap="round" stroke-linejoin="round"/>
<path d="M547.427 122.886H371.08" stroke="#263238" stroke-width="2" stroke-linecap="round" stroke-linejoin="round"/>
<path d="M292.268 122.886H96.8403" stroke="#263238" stroke-width="2" stroke-linecap="round" stroke-linejoin="round"/>
<path d="M31.9526 122.886H9.58893" stroke="#263238" stroke-width="2" stroke-linecap="round" stroke-linejoin="round"/>
<path d="M475.899 92.1754H437.032C435.234 92.1747 433.471 92.6661 431.94 93.5944C430.41 94.5227 429.173 95.8514 428.369 97.4313L421.863 110.21C421.567 110.796 421.429 111.447 421.46 112.1C421.492 112.754 421.693 113.389 422.044 113.944C422.395 114.5 422.885 114.959 423.467 115.277C424.05 115.595 424.705 115.761 425.371 115.761H475.914L475.899 92.1754Z" fill="white" stroke="#263238" stroke-linecap="round" stroke-linejoin="round"/>
<path d="M475.899 92.1754H444.572L447.989 115.761H475.899V92.1754Z" fill="#263238" stroke="#263238" stroke-linecap="round" stroke-linejoin="round"/>
<path d="M539.288 92.1754H529.8L529.665 115.761H542.705L539.288 92.1754Z" fill="#263238" stroke="#263238" stroke-linecap="round" stroke-linejoin="round"/>
<path d="M115.607 57.254H96.6455C94.9898 57.254 93.6476 58.5723 93.6476 60.1985V75.0533C93.6476 76.6795 94.9898 77.9978 96.6455 77.9978H115.607C117.262 77.9978 118.604 76.6795 118.604 75.0533V60.1985C118.604 58.5723 117.262 57.254 115.607 57.254Z" fill="#263238" stroke="#263238" stroke-linecap="round" stroke-linejoin="round"/>
<path d="M243.404 74.2289V145.897" stroke="#263238" stroke-linecap="round" stroke-linejoin="round"/>
<path d="M81.1618 106.294C81.1618 106.294 98.744 116.026 100.992 149.342H287.561" stroke="#263238" stroke-linecap="round" stroke-linejoin="round"/>
<path d="M375.877 120.428C375.877 120.428 366.689 96.8719 335.916 96.8719C314.467 96.8719 304.214 107.943 299.073 116.673" stroke="#263238" stroke-linecap="round" stroke-linejoin="round"/>
<path d="M412.18 1H209.138V6.04975H412.18V1Z" fill="#263238" stroke="#263238" stroke-linecap="round" stroke-linejoin="round"/>
</svg>
