<svg width="117" height="115" viewBox="0 0 117 115" fill="none" xmlns="http://www.w3.org/2000/svg">
<path d="M42.13 31.9464C36.8413 35.4228 32.8325 40.4791 30.6968 46.3671C28.561 52.2552 28.4119 58.6621 30.2713 64.6399C32.1308 70.6176 35.9 75.8487 41.0214 79.5589C46.1428 83.2692 52.3441 85.2616 58.7079 85.2412C63.6231 85.2554 68.463 84.0555 72.7827 81.752" stroke="#263238" stroke-linecap="round" stroke-linejoin="round"/>
<path d="M78.9581 77.3795C84.1182 72.6408 87.3851 66.2473 88.1697 59.3518C88.9544 52.4562 87.2052 45.5121 83.2376 39.7714C79.27 34.0306 73.3449 29.8709 66.5305 28.042C59.716 26.2132 52.4606 26.8355 46.0721 29.7969" stroke="#263238" stroke-linecap="round" stroke-linejoin="round"/>
<path d="M58.7079 94.2072V114.347" stroke="#263238" stroke-linecap="round" stroke-linejoin="round"/>
<path d="M58.7079 1V21.1402" stroke="#263238" stroke-linecap="round" stroke-linejoin="round"/>
<path d="M23.1239 92.6318L17.8927 97.7552" stroke="#263238" stroke-linecap="round" stroke-linejoin="round"/>
<path d="M32.4021 83.504L26.1816 89.6285" stroke="#263238" stroke-linecap="round" stroke-linejoin="round"/>
<path d="M99.5082 17.5921L84.9987 31.8433" stroke="#263238" stroke-linecap="round" stroke-linejoin="round"/>
<path d="M95.8958 57.6663H116.416" stroke="#263238" stroke-linecap="round" stroke-linejoin="round"/>
<path d="M0.999956 57.6663H21.52" stroke="#263238" stroke-linecap="round" stroke-linejoin="round"/>
<path d="M95.656 93.9716L99.5082 97.7553" stroke="#263238" stroke-linecap="round" stroke-linejoin="round"/>
<path d="M84.9987 83.504L93.8723 92.2049" stroke="#263238" stroke-linecap="round" stroke-linejoin="round"/>
<path d="M24.4879 24.0699L32.4021 31.8433" stroke="#263238" stroke-linecap="round" stroke-linejoin="round"/>
<path d="M17.8927 17.5921L21.6849 21.3169" stroke="#263238" stroke-linecap="round" stroke-linejoin="round"/>
</svg>
